<?xml version="1.0" encoding="UTF-8"?>
<svg xmlns="http://www.w3.org/2000/svg" width="515.5pt" height="217.66pt" viewBox="0 0 515.5 217.66">
<defs>
  <style>
    text { font-family: Arial, Helvetica, sans-serif; fill: #4D4D4D; }
    .title { font-size: 34px; font-weight: 700; }
    .subtitle { font-size: 25px; fill: #999999; }
    .panel-title { font-size: 27px; font-weight: 700; }
    .panel-letter { font-size: 25px; font-weight: 700; fill: #4D4D4D; }
    .small { font-size: 25px; fill: #4D4D4D; }
    .tiny { font-size: 25px; fill: #999999; }
    .metric { font-size: 25px; font-weight: 700; }
    .metric-val { font-size: 25px; fill: #999999; }
    .cfm-label { font-size: 25px; font-weight: 700; }
    .cfm-sub { font-size: 25px; fill: #999999; }
    .panel { fill: #ffffff; stroke: #BDBDBD; stroke-width: 2.0; rx: 8; }
    .hair { stroke: #BDBDBD; stroke-width: 1.8; fill: none; }
    .axis { stroke: #4D4D4D; stroke-width: 1.7; fill: none; }
    .arrow { stroke: #999999; stroke-width: 2.2; fill: none; }
    .arrow-green { stroke: #0072B2; stroke-width: 3.2; fill: none; }
    .receiver { fill: #0072B2; stroke: #111; stroke-width: 1.4; }
    .receiver-feed { stroke: #d7a53a; stroke-width: 2.2; fill: none; stroke-linecap: round; }
    .dash { stroke-dasharray: 8 7; }
  </style>
</defs>
<g transform="scale(0.28638889)">
<rect width="1800" height="760" fill="white"/>
<text x="900" y="48" class="title" text-anchor="middle"><tspan>Calibrated</tspan><tspan dx="0.32em">posterior</tspan><tspan dx="0.32em">pipeline</tspan><tspan dx="0.32em">for</tspan><tspan dx="0.32em">RF</tspan><tspan dx="0.32em">capsule</tspan><tspan dx="0.32em">localization</tspan></text><text x="900" y="76" class="subtitle" text-anchor="middle"><tspan>full-wave</tspan><tspan dx="0.32em">simulation</tspan><tspan dx="0.32em">evidence</tspan><tspan dx="0.32em">now;</tspan><tspan dx="0.32em">physical</tspan><tspan dx="0.32em">phantom</tspan><tspan dx="0.32em">validation</tspan><tspan dx="0.32em">is</tspan><tspan dx="0.32em">the</tspan><tspan dx="0.32em">next</tspan><tspan dx="0.32em">gate</tspan></text><rect x="45" y="96" width="382" height="620" class="panel" /><circle cx="79" cy="130" r="24" class="" fill="#F7F9FA" stroke="#999999" stroke-width="2"/><text x="79" y="139" class="panel-letter" text-anchor="middle"><tspan>A</tspan></text><rect x="470" y="96" width="382" height="620" class="panel" /><circle cx="504" cy="130" r="24" class="" fill="#F7F9FA" stroke="#999999" stroke-width="2"/><text x="504" y="139" class="panel-letter" text-anchor="middle"><tspan>B</tspan></text><rect x="895" y="96" width="382" height="620" class="panel" /><circle cx="929" cy="130" r="24" class="" fill="#F7F9FA" stroke="#999999" stroke-width="2"/><text x="929" y="139" class="panel-letter" text-anchor="middle"><tspan>C</tspan></text><rect x="1320" y="96" width="382" height="620" class="panel" /><circle cx="1354" cy="130" r="24" class="" fill="#F7F9FA" stroke="#999999" stroke-width="2"/><text x="1354" y="139" class="panel-letter" text-anchor="middle"><tspan>D</tspan></text><text x="123" y="139" class="panel-title" ><tspan>Four-receiver</tspan><tspan dx="0.32em">RF</tspan><tspan dx="0.32em">problem</tspan></text><text x="548" y="139" class="panel-title" ><tspan>Full-wave</tspan><tspan dx="0.32em">data</tspan><tspan dx="0.32em">generation</tspan></text><text x="973" y="139" class="panel-title" ><tspan>Conditional</tspan><tspan dx="0.32em">posterior</tspan></text><text x="1398" y="139" class="panel-title" ><tspan>Evidence</tspan><tspan dx="0.32em">and</tspan><tspan dx="0.32em">boundary</tspan></text><line x1="434" y1="356" x2="450" y2="356" class="" stroke="#999999" stroke-width="2.2" stroke-linecap="round"/><polygon points="460,356 450,351 450,361" class="" fill="#999999"/><line x1="859" y1="356" x2="875" y2="356" class="" stroke="#999999" stroke-width="2.2" stroke-linecap="round"/><polygon points="885,356 875,351 875,361" class="" fill="#999999"/><line x1="1284" y1="356" x2="1300" y2="356" class="" stroke="#999999" stroke-width="2.2" stroke-linecap="round"/><polygon points="1310,356 1300,351 1300,361" class="" fill="#999999"/><polygon points="131.38600000000002,219.214 239.494,209.38600000000002 362.614,258.634 254.506,268.462" class="" fill="#F7F9FA" stroke="#4D4D4D" stroke-width="1.2" opacity="0.42"/><polygon points="131.38600000000002,409.366 239.494,399.538 362.614,448.786 254.506,458.614" class="" fill="#EEEEEE" stroke="#4D4D4D" stroke-width="1.2" opacity="0.26"/><line x1="131.38600000000002" y1="409.366" x2="239.494" y2="399.538" class="hair" stroke="#4D4D4D" stroke-width="1.8" opacity="0.75"/><line x1="239.494" y1="399.538" x2="362.614" y2="448.786" class="hair" stroke="#4D4D4D" stroke-width="1.8" opacity="0.75"/><line x1="362.614" y1="448.786" x2="254.506" y2="458.614" class="hair" stroke="#4D4D4D" stroke-width="1.8" opacity="0.75"/><line x1="254.506" y1="458.614" x2="131.38600000000002" y2="409.366" class="hair" stroke="#4D4D4D" stroke-width="1.8" opacity="0.75"/><line x1="131.38600000000002" y1="219.214" x2="239.494" y2="209.38600000000002" class="hair" stroke="#4D4D4D" stroke-width="1.8" opacity="0.75"/><line x1="239.494" y1="209.38600000000002" x2="362.614" y2="258.634" class="hair" stroke="#4D4D4D" stroke-width="1.8" opacity="0.75"/><line x1="362.614" y1="258.634" x2="254.506" y2="268.462" class="hair" stroke="#4D4D4D" stroke-width="1.8" opacity="0.75"/><line x1="254.506" y1="268.462" x2="131.38600000000002" y2="219.214" class="hair" stroke="#4D4D4D" stroke-width="1.8" opacity="0.75"/><line x1="131.38600000000002" y1="409.366" x2="131.38600000000002" y2="219.214" class="hair" stroke="#4D4D4D" stroke-width="1.8" opacity="0.75"/><line x1="239.494" y1="399.538" x2="239.494" y2="209.38600000000002" class="hair" stroke="#4D4D4D" stroke-width="1.8" opacity="0.75"/><line x1="362.614" y1="448.786" x2="362.614" y2="258.634" class="hair" stroke="#4D4D4D" stroke-width="1.8" opacity="0.75"/><line x1="254.506" y1="458.614" x2="254.506" y2="268.462" class="hair" stroke="#4D4D4D" stroke-width="1.8" opacity="0.75"/><polygon points="180.2425,304.7185 190.6375,303.7735 190.6375,221.69350000000003 180.2425,222.63850000000002" class="" fill="#0072B2" stroke="#111" stroke-width="1.4" opacity="0.96"/><text x="174.424" y="225.62560000000002" class="tiny" text-anchor="middle"><tspan>P1</tspan></text><polygon points="188.6935,427.843 188.6935,345.763 197.1985,349.165 197.1985,431.245" class="" fill="#D55E00" stroke="#111" stroke-width="1.4" opacity="0.96"/><text x="170.374" y="390.556" class="tiny" text-anchor="middle"><tspan>P4</tspan></text><polygon points="296.8015,322.255 296.8015,240.175 305.3065,243.577 305.3065,325.657" class="" fill="#0072B2" stroke="#111" stroke-width="1.4" opacity="0.96"/><text x="322.04200000000003" y="281.008" class="tiny" text-anchor="middle"><tspan>P3</tspan></text><polygon points="303.3625,449.7265 313.7575,448.7815 313.7575,366.7015 303.3625,367.6465" class="" fill="#D55E00" stroke="#111" stroke-width="1.4" opacity="0.96"/><text x="321.196" y="444.3904" class="tiny" text-anchor="middle"><tspan>P2</tspan></text><ellipse cx="247" cy="334" rx="74" ry="30" class="hair" stroke="#0072B2" opacity="0.45"/><ellipse cx="247" cy="334" rx="48" ry="19" class="hair" stroke="#0072B2" opacity="0.42"/><ellipse cx="247" cy="334" rx="30" ry="13" class="" fill="#D55E00" stroke="#7e5a15" stroke-width="1.4"/><text x="247" y="339" class="tiny" text-anchor="middle"><tspan>Tx</tspan></text><text x="236" y="567" class="small" text-anchor="middle"><tspan x="236" dy="0">four</tspan><tspan dx="0.32em">receivers</tspan><tspan dx="0.32em">on</tspan><tspan dx="0.32em">vertical</tspan><tspan x="236" dy="31">side</tspan><tspan dx="0.32em">walls</tspan></text><text x="236" y="622" class="tiny" text-anchor="middle"><tspan x="236" dy="0">green:</tspan><tspan dx="0.32em">upper</tspan><tspan dx="0.32em">pair;</tspan><tspan x="236" dy="27">orange:</tspan><tspan dx="0.32em">lower</tspan><tspan dx="0.32em">pair</tspan></text><text x="236" y="674" class="tiny" text-anchor="middle"><tspan x="236" dy="0">top</tspan><tspan dx="0.32em">and</tspan><tspan dx="0.32em">floor</tspan><tspan dx="0.32em">faces</tspan><tspan x="236" dy="27">have</tspan><tspan dx="0.32em">no</tspan><tspan dx="0.32em">receiver</tspan></text><rect x="540" y="218" width="250" height="122" class="" fill="#F7F9FA" stroke="#BDBDBD" stroke-width="1.5"/><line x1="564" y1="315" x2="768" y2="315" class="hair" stroke="#4D4D4D"/><line x1="564" y1="240" x2="564" y2="315" class="hair" stroke="#4D4D4D"/><path d="M 568.0 296.0 L 571.0 293.5 L 574.0 291.0 L 577.0 288.6 L 580.0 286.3 L 583.0 284.0 L 586.0 281.9 L 589.0 279.9 L 592.0 278.1 L 595.0 276.4 L 598.0 275.0 L 601.0 273.7 L 604.0 272.7 L 607.0 271.9 L 610.0 271.4 L 613.0 271.1 L 616.0 271.0 L 619.0 271.2 L 622.0 271.7 L 625.0 272.3 L 628.0 273.3 L 631.0 274.4 L 634.0 275.8 L 637.0 277.4 L 640.0 279.1 L 643.0 281.0 L 646.0 283.1 L 649.0 285.3 L 652.0 287.6 L 655.0 290.0 L 658.0 292.5 L 661.0 295.0 L 664.0 297.5 L 667.0 299.9 L 670.0 302.4 L 673.0 304.8 L 676.0 307.1 L 679.0 309.2 L 682.0 311.3 L 685.0 313.2 L 688.0 314.9 L 691.0 316.5 L 694.0 317.8 L 697.0 318.9 L 700.0 319.8 L 703.0 320.4 L 706.0 320.8 L 709.0 321.0 L 712.0 320.9 L 715.0 320.6 L 718.0 320.0 L 721.0 319.1 L 724.0 318.1 L 727.0 316.8 L 730.0 315.3 L 733.0 313.6 L 736.0 311.8 L 739.0 309.8 L 742.0 307.6 L 745.0 305.3 L 748.0 303.0 L 751.0 300.6 L 754.0 298.1 L 757.0 295.6 L 760.0 293.1 L 763.0 290.6 L 766.0 288.2 L 769.0 285.9 L 772.0 283.6 L 775.0 281.5 " class="" fill="none" stroke="#0072B2" stroke-width="2.0" opacity="0.9"/><path d="M 568.0 275.9 L 571.0 273.9 L 574.0 272.1 L 577.0 270.4 L 580.0 269.0 L 583.0 267.7 L 586.0 266.7 L 589.0 265.9 L 592.0 265.4 L 595.0 265.1 L 598.0 265.0 L 601.0 265.2 L 604.0 265.7 L 607.0 266.3 L 610.0 267.3 L 613.0 268.4 L 616.0 269.8 L 619.0 271.4 L 622.0 273.1 L 625.0 275.0 L 628.0 277.1 L 631.0 279.3 L 634.0 281.6 L 637.0 284.0 L 640.0 286.5 L 643.0 289.0 L 646.0 291.5 L 649.0 293.9 L 652.0 296.4 L 655.0 298.8 L 658.0 301.1 L 661.0 303.2 L 664.0 305.3 L 667.0 307.2 L 670.0 308.9 L 673.0 310.5 L 676.0 311.8 L 679.0 312.9 L 682.0 313.8 L 685.0 314.4 L 688.0 314.8 L 691.0 315.0 L 694.0 314.9 L 697.0 314.6 L 700.0 314.0 L 703.0 313.1 L 706.0 312.1 L 709.0 310.8 L 712.0 309.3 L 715.0 307.6 L 718.0 305.8 L 721.0 303.8 L 724.0 301.6 L 727.0 299.3 L 730.0 297.0 L 733.0 294.6 L 736.0 292.1 L 739.0 289.6 L 742.0 287.1 L 745.0 284.6 L 748.0 282.2 L 751.0 279.9 L 754.0 277.6 L 757.0 275.5 L 760.0 273.6 L 763.0 271.8 L 766.0 270.2 L 769.0 268.7 L 772.0 267.5 L 775.0 266.6 " class="" fill="none" stroke="#0072B2" stroke-width="2.0" opacity="0.9"/><path d="M 568.0 260.7 L 571.0 259.9 L 574.0 259.4 L 577.0 259.1 L 580.0 259.0 L 583.0 259.2 L 586.0 259.7 L 589.0 260.3 L 592.0 261.3 L 595.0 262.4 L 598.0 263.8 L 601.0 265.4 L 604.0 267.1 L 607.0 269.0 L 610.0 271.1 L 613.0 273.3 L 616.0 275.6 L 619.0 278.0 L 622.0 280.5 L 625.0 283.0 L 628.0 285.5 L 631.0 287.9 L 634.0 290.4 L 637.0 292.8 L 640.0 295.1 L 643.0 297.2 L 646.0 299.3 L 649.0 301.2 L 652.0 302.9 L 655.0 304.5 L 658.0 305.8 L 661.0 306.9 L 664.0 307.8 L 667.0 308.4 L 670.0 308.8 L 673.0 309.0 L 676.0 308.9 L 679.0 308.6 L 682.0 308.0 L 685.0 307.1 L 688.0 306.1 L 691.0 304.8 L 694.0 303.3 L 697.0 301.6 L 700.0 299.8 L 703.0 297.8 L 706.0 295.6 L 709.0 293.3 L 712.0 291.0 L 715.0 288.6 L 718.0 286.1 L 721.0 283.6 L 724.0 281.1 L 727.0 278.6 L 730.0 276.2 L 733.0 273.9 L 736.0 271.6 L 739.0 269.5 L 742.0 267.6 L 745.0 265.8 L 748.0 264.2 L 751.0 262.7 L 754.0 261.5 L 757.0 260.6 L 760.0 259.8 L 763.0 259.3 L 766.0 259.0 L 769.0 259.0 L 772.0 259.3 L 775.0 259.8 " class="" fill="none" stroke="#D55E00" stroke-width="2.0" opacity="0.9"/><path d="M 568.0 253.7 L 571.0 254.3 L 574.0 255.3 L 577.0 256.4 L 580.0 257.8 L 583.0 259.4 L 586.0 261.1 L 589.0 263.0 L 592.0 265.1 L 595.0 267.3 L 598.0 269.6 L 601.0 272.0 L 604.0 274.5 L 607.0 277.0 L 610.0 279.5 L 613.0 281.9 L 616.0 284.4 L 619.0 286.8 L 622.0 289.1 L 625.0 291.2 L 628.0 293.3 L 631.0 295.2 L 634.0 296.9 L 637.0 298.5 L 640.0 299.8 L 643.0 300.9 L 646.0 301.8 L 649.0 302.4 L 652.0 302.8 L 655.0 303.0 L 658.0 302.9 L 661.0 302.6 L 664.0 302.0 L 667.0 301.1 L 670.0 300.1 L 673.0 298.8 L 676.0 297.3 L 679.0 295.6 L 682.0 293.8 L 685.0 291.8 L 688.0 289.6 L 691.0 287.3 L 694.0 285.0 L 697.0 282.6 L 700.0 280.1 L 703.0 277.6 L 706.0 275.1 L 709.0 272.6 L 712.0 270.2 L 715.0 267.9 L 718.0 265.6 L 721.0 263.5 L 724.0 261.6 L 727.0 259.8 L 730.0 258.2 L 733.0 256.7 L 736.0 255.5 L 739.0 254.6 L 742.0 253.8 L 745.0 253.3 L 748.0 253.0 L 751.0 253.0 L 754.0 253.3 L 757.0 253.8 L 760.0 254.5 L 763.0 255.4 L 766.0 256.6 L 769.0 258.0 L 772.0 259.6 L 775.0 261.4 " class="" fill="none" stroke="#4D4D4D" stroke-width="2.0" opacity="0.9"/><text x="665" y="366" class="tiny" text-anchor="middle"><tspan x="665" dy="0">S-parameter</tspan><tspan dx="0.32em">sweep</tspan><tspan dx="0.32em">-&gt;</tspan><tspan x="665" dy="31">180-D</tspan><tspan dx="0.32em">RF</tspan><tspan dx="0.32em">features</tspan></text><rect x="542" y="410" width="250" height="86" class="" fill="none" stroke="#999999" stroke-width="1.5" stroke-dasharray="7 6"/><circle cx="610.5" cy="445.0" r="5.1" class="" fill="#0072B2" opacity="0.75"/><circle cx="565.9" cy="429.7" r="5.1" class="" fill="#0072B2" opacity="0.75"/><circle cx="641.2" cy="458.7" r="5.1" class="" fill="#D55E00" opacity="0.75"/><circle cx="670.5" cy="461.0" r="5.1" class="" fill="#4D4D4D" opacity="0.75"/><circle cx="691.5" cy="439.3" r="5.1" class="" fill="#777" opacity="0.75"/><circle cx="610.6" cy="480.3" r="5.1" class="" fill="#0072B2" opacity="0.75"/><circle cx="631.3" cy="441.4" r="5.1" class="" fill="#0072B2" opacity="0.75"/><circle cx="720.8" cy="429.5" r="5.1" class="" fill="#D55E00" opacity="0.75"/><circle cx="676.9" cy="452.6" r="5.1" class="" fill="#4D4D4D" opacity="0.75"/><circle cx="768.8" cy="440.2" r="5.1" class="" fill="#777" opacity="0.75"/><circle cx="736.3" cy="440.7" r="5.1" class="" fill="#0072B2" opacity="0.75"/><circle cx="654.6" cy="429.5" r="5.1" class="" fill="#0072B2" opacity="0.75"/><circle cx="649.8" cy="457.0" r="5.1" class="" fill="#D55E00" opacity="0.75"/><circle cx="596.3" cy="472.0" r="5.1" class="" fill="#4D4D4D" opacity="0.75"/><circle cx="595.4" cy="455.5" r="5.1" class="" fill="#777" opacity="0.75"/><circle cx="644.0" cy="476.0" r="5.1" class="" fill="#0072B2" opacity="0.75"/><circle cx="760.9" cy="462.2" r="5.1" class="" fill="#0072B2" opacity="0.75"/><circle cx="723.6" cy="464.9" r="5.1" class="" fill="#D55E00" opacity="0.75"/><circle cx="751.7" cy="425.2" r="5.1" class="" fill="#4D4D4D" opacity="0.75"/><circle cx="723.2" cy="442.4" r="5.1" class="" fill="#777" opacity="0.75"/><circle cx="561.3" cy="468.7" r="5.1" class="" fill="#0072B2" opacity="0.75"/><circle cx="625.7" cy="452.7" r="5.1" class="" fill="#0072B2" opacity="0.75"/><circle cx="629.8" cy="432.2" r="5.1" class="" fill="#D55E00" opacity="0.75"/><circle cx="745.3" cy="443.1" r="5.1" class="" fill="#4D4D4D" opacity="0.75"/><circle cx="747.4" cy="469.0" r="5.1" class="" fill="#777" opacity="0.75"/><circle cx="655.3" cy="451.6" r="5.1" class="" fill="#0072B2" opacity="0.75"/><circle cx="668.3" cy="472.7" r="5.1" class="" fill="#0072B2" opacity="0.75"/><circle cx="678.3" cy="455.9" r="5.1" class="" fill="#D55E00" opacity="0.75"/><circle cx="558.2" cy="438.4" r="5.1" class="" fill="#4D4D4D" opacity="0.75"/><circle cx="711.9" cy="436.7" r="5.1" class="" fill="#777" opacity="0.75"/><circle cx="760.0" cy="456.2" r="5.1" class="" fill="#0072B2" opacity="0.75"/><circle cx="589.1" cy="442.2" r="5.1" class="" fill="#0072B2" opacity="0.75"/><circle cx="637.5" cy="433.4" r="5.1" class="" fill="#D55E00" opacity="0.75"/><circle cx="559.1" cy="456.2" r="5.1" class="" fill="#4D4D4D" opacity="0.75"/><circle cx="668.3" cy="434.0" r="5.1" class="" fill="#777" opacity="0.75"/><circle cx="749.2" cy="426.4" r="5.1" class="" fill="#0072B2" opacity="0.75"/><circle cx="677.3" cy="440.0" r="5.1" class="" fill="#0072B2" opacity="0.75"/><circle cx="699.7" cy="465.9" r="5.1" class="" fill="#D55E00" opacity="0.75"/><circle cx="674.3" cy="456.2" r="5.1" class="" fill="#4D4D4D" opacity="0.75"/><circle cx="773.7" cy="474.3" r="5.1" class="" fill="#777" opacity="0.75"/><circle cx="562.2" cy="449.8" r="5.1" class="" fill="#0072B2" opacity="0.75"/><circle cx="759.2" cy="481.2" r="5.1" class="" fill="#0072B2" opacity="0.75"/><circle cx="712.5" cy="478.0" r="5.1" class="" fill="#D55E00" opacity="0.75"/><circle cx="626.0" cy="449.4" r="5.1" class="" fill="#4D4D4D" opacity="0.75"/><circle cx="656.3" cy="465.6" r="5.1" class="" fill="#777" opacity="0.75"/><circle cx="605.9" cy="448.5" r="5.1" class="" fill="#0072B2" opacity="0.75"/><circle cx="609.5" cy="433.9" r="5.1" class="" fill="#0072B2" opacity="0.75"/><circle cx="656.1" cy="448.9" r="5.1" class="" fill="#D55E00" opacity="0.75"/><circle cx="577.3" cy="435.1" r="5.1" class="" fill="#4D4D4D" opacity="0.75"/><circle cx="723.4" cy="435.1" r="5.1" class="" fill="#777" opacity="0.75"/><circle cx="772.5" cy="481.3" r="5.1" class="" fill="#0072B2" opacity="0.75"/><circle cx="671.2" cy="478.0" r="5.1" class="" fill="#0072B2" opacity="0.75"/><circle cx="600.6" cy="474.1" r="5.1" class="" fill="#D55E00" opacity="0.75"/><circle cx="742.4" cy="477.7" r="5.1" class="" fill="#4D4D4D" opacity="0.75"/><circle cx="711.0" cy="452.7" r="5.1" class="" fill="#777" opacity="0.75"/><circle cx="654.6" cy="442.7" r="5.1" class="" fill="#0072B2" opacity="0.75"/><circle cx="677.9" cy="477.6" r="5.1" class="" fill="#0072B2" opacity="0.75"/><circle cx="711.7" cy="450.3" r="5.1" class="" fill="#D55E00" opacity="0.75"/><circle cx="625.5" cy="436.5" r="5.1" class="" fill="#4D4D4D" opacity="0.75"/><circle cx="735.5" cy="462.1" r="5.1" class="" fill="#777" opacity="0.75"/><circle cx="561.4" cy="440.3" r="5.1" class="" fill="#0072B2" opacity="0.75"/><circle cx="748.2" cy="430.1" r="5.1" class="" fill="#0072B2" opacity="0.75"/><circle cx="609.8" cy="446.6" r="5.1" class="" fill="#D55E00" opacity="0.75"/><circle cx="627.4" cy="478.3" r="5.1" class="" fill="#4D4D4D" opacity="0.75"/><circle cx="593.5" cy="465.7" r="5.1" class="" fill="#777" opacity="0.75"/><circle cx="590.7" cy="482.6" r="5.1" class="" fill="#0072B2" opacity="0.75"/><circle cx="740.7" cy="440.8" r="5.1" class="" fill="#0072B2" opacity="0.75"/><circle cx="715.2" cy="426.6" r="5.1" class="" fill="#D55E00" opacity="0.75"/><circle cx="767.5" cy="463.7" r="5.1" class="" fill="#4D4D4D" opacity="0.75"/><circle cx="584.8" cy="465.2" r="5.1" class="" fill="#777" opacity="0.75"/><circle cx="744.4" cy="448.4" r="5.1" class="" fill="#0072B2" opacity="0.75"/><circle cx="648.9" cy="482.9" r="5.1" class="" fill="#0072B2" opacity="0.75"/><text x="667" y="520" class="small" text-anchor="middle"><tspan x="667" dy="0">N=3935</tspan><tspan dx="0.32em">configurations</tspan><tspan x="667" dy="31">position-grouped</tspan><tspan dx="0.32em">5-fold</tspan><tspan dx="0.32em">CV</tspan></text><rect x="953" y="172" width="266" height="88" class="" rx="8" fill="#E5F1F8" stroke="#0072B2" stroke-width="1.5" opacity="0.96"/><text x="1086" y="198" class="metric" text-anchor="middle"><tspan>condition</tspan><tspan dx="0.32em">c</tspan></text><text x="1086" y="227" class="tiny" text-anchor="middle"><tspan x="1086" dy="0">RF</tspan><tspan dx="0.32em">measurement;</tspan><tspan x="1086" dy="25">fixed</tspan><tspan dx="0.32em">geometry</tspan></text><rect x="937" y="284" width="298" height="300" class="" rx="16" fill="#fbfcfc" stroke="#BDBDBD" stroke-width="1.4" opacity="0.98"/><line x1="1086" y1="262" x2="1086" y2="295" class="" stroke="#0072B2" stroke-width="1.8" stroke-linecap="round" opacity="0.68"/><polygon points="1086,305 1081,295 1091,295" class="" fill="#0072B2"/><text x="1086" y="320" class="small" text-anchor="middle"><tspan>learned</tspan><tspan dx="0.32em">conditional</tspan><tspan dx="0.32em">transport</tspan></text><ellipse cx="1003" cy="424" rx="52" ry="34" class="" fill="#f2f4f4" stroke="#9aa1a4" stroke-width="1.4" opacity="0.90"/><ellipse cx="1003" cy="424" rx="34" ry="21" class="" fill="none" stroke="#9aa1a4" stroke-width="1.1" opacity="0.50"/><circle cx="983.5" cy="421.7" r="5.5" class="" fill="#8f9698" opacity="0.48"/><circle cx="1025.6" cy="418.2" r="5.5" class="" fill="#8f9698" opacity="0.48"/><circle cx="1030.1" cy="418.5" r="5.5" class="" fill="#8f9698" opacity="0.48"/><circle cx="989.2" cy="436.3" r="5.5" class="" fill="#8f9698" opacity="0.48"/><circle cx="1014.9" cy="433.3" r="5.5" class="" fill="#8f9698" opacity="0.48"/><circle cx="1004.1" cy="426.4" r="5.5" class="" fill="#8f9698" opacity="0.48"/><circle cx="1012.5" cy="414.1" r="5.5" class="" fill="#8f9698" opacity="0.48"/><circle cx="1002.8" cy="435.6" r="5.5" class="" fill="#8f9698" opacity="0.48"/><circle cx="984.5" cy="420.1" r="5.5" class="" fill="#8f9698" opacity="0.48"/><circle cx="1035.9" cy="434.8" r="5.5" class="" fill="#8f9698" opacity="0.48"/><circle cx="982.7" cy="420.4" r="5.5" class="" fill="#8f9698" opacity="0.48"/><circle cx="1012.9" cy="442.4" r="5.5" class="" fill="#8f9698" opacity="0.48"/><circle cx="1012.6" cy="439.9" r="5.5" class="" fill="#8f9698" opacity="0.48"/><circle cx="972.7" cy="413.8" r="5.5" class="" fill="#8f9698" opacity="0.48"/><circle cx="1034.4" cy="413.2" r="5.5" class="" fill="#8f9698" opacity="0.48"/><circle cx="981.3" cy="424.2" r="5.5" class="" fill="#8f9698" opacity="0.48"/><circle cx="992.8" cy="411.1" r="5.5" class="" fill="#8f9698" opacity="0.48"/><circle cx="1012.8" cy="408.2" r="5.5" class="" fill="#8f9698" opacity="0.48"/><circle cx="1027.9" cy="428.8" r="5.5" class="" fill="#8f9698" opacity="0.48"/><circle cx="1002.0" cy="401.3" r="5.5" class="" fill="#8f9698" opacity="0.48"/><path d="M 971 406 C 1052 378, 1120 378, 1145 406" class="" fill="none" stroke="#0072B2" stroke-width="2.1" opacity="0.55" stroke-linecap="round"/><path d="M 973 424 C 1052 406, 1120 406, 1155 417" class="" fill="none" stroke="#0072B2" stroke-width="2.1" opacity="0.55" stroke-linecap="round"/><polygon points="1155,417 1148,413.5 1148,420.5" class="" fill="#0072B2"/><path d="M 982 442 C 1052 442, 1120 442, 1169 434" class="" fill="none" stroke="#0072B2" stroke-width="2.1" opacity="0.55" stroke-linecap="round"/><path d="M 1005 404 C 1052 396, 1120 396, 1183 415" class="" fill="none" stroke="#0072B2" stroke-width="2.1" opacity="0.55" stroke-linecap="round"/><polygon points="1183,415 1176,411.5 1176,418.5" class="" fill="#0072B2"/><path d="M 1019 425 C 1052 428, 1120 428, 1195 426" class="" fill="none" stroke="#0072B2" stroke-width="2.1" opacity="0.55" stroke-linecap="round"/><path d="M 1028 442 C 1052 452, 1120 452, 1204 438" class="" fill="none" stroke="#0072B2" stroke-width="2.1" opacity="0.55" stroke-linecap="round"/><polygon points="1204,438 1197,434.5 1197,441.5" class="" fill="#0072B2"/><ellipse cx="1173" cy="424" rx="71" ry="34" class="" fill="#E5F1F8" stroke="none" opacity="0.78"/><ellipse cx="1173" cy="424" rx="71" ry="34" class="" fill="none" stroke="#0072B2" stroke-width="2.3" opacity="0.82"/><ellipse cx="1173" cy="424" rx="44" ry="20" class="" fill="none" stroke="#0072B2" stroke-width="1.6" opacity="0.58"/><circle cx="1188.5" cy="408.4" r="5.4" class="" fill="#0072B2" opacity="0.58"/><circle cx="1162.3" cy="445.1" r="5.4" class="" fill="#0072B2" opacity="0.58"/><circle cx="1180.8" cy="447.3" r="5.4" class="" fill="#0072B2" opacity="0.58"/><circle cx="1151.2" cy="430.5" r="5.4" class="" fill="#0072B2" opacity="0.58"/><circle cx="1140.5" cy="411.9" r="5.4" class="" fill="#0072B2" opacity="0.58"/><circle cx="1191.5" cy="436.5" r="5.4" class="" fill="#0072B2" opacity="0.58"/><circle cx="1187.0" cy="415.0" r="5.4" class="" fill="#0072B2" opacity="0.58"/><circle cx="1182.7" cy="437.2" r="5.4" class="" fill="#0072B2" opacity="0.58"/><circle cx="1181.1" cy="444.0" r="5.4" class="" fill="#0072B2" opacity="0.58"/><circle cx="1186.2" cy="430.1" r="5.4" class="" fill="#0072B2" opacity="0.58"/><circle cx="1187.7" cy="403.6" r="5.4" class="" fill="#0072B2" opacity="0.58"/><circle cx="1215.0" cy="425.2" r="5.4" class="" fill="#0072B2" opacity="0.58"/><circle cx="1158.9" cy="435.5" r="5.4" class="" fill="#0072B2" opacity="0.58"/><circle cx="1178.4" cy="416.9" r="5.4" class="" fill="#0072B2" opacity="0.58"/><circle cx="1173.6" cy="426.5" r="5.4" class="" fill="#0072B2" opacity="0.58"/><circle cx="1214.5" cy="421.0" r="5.4" class="" fill="#0072B2" opacity="0.58"/><circle cx="1222.4" cy="423.8" r="5.4" class="" fill="#0072B2" opacity="0.58"/><circle cx="1136.5" cy="434.1" r="5.4" class="" fill="#0072B2" opacity="0.58"/><circle cx="1167.2" cy="408.4" r="5.4" class="" fill="#0072B2" opacity="0.58"/><circle cx="1165.3" cy="416.8" r="5.4" class="" fill="#0072B2" opacity="0.58"/><circle cx="1151.2" cy="405.6" r="5.4" class="" fill="#0072B2" opacity="0.58"/><circle cx="1179.8" cy="427.7" r="5.4" class="" fill="#0072B2" opacity="0.58"/><circle cx="1143.1" cy="428.0" r="5.4" class="" fill="#0072B2" opacity="0.58"/><circle cx="1185.9" cy="422.1" r="5.4" class="" fill="#0072B2" opacity="0.58"/><circle cx="1164.9" cy="435.0" r="5.4" class="" fill="#0072B2" opacity="0.58"/><circle cx="1182.4" cy="441.6" r="5.4" class="" fill="#0072B2" opacity="0.58"/><circle cx="1205.9" cy="434.2" r="5.4" class="" fill="#0072B2" opacity="0.58"/><circle cx="1209.9" cy="425.3" r="5.4" class="" fill="#0072B2" opacity="0.58"/><circle cx="1157.4" cy="415.3" r="5.4" class="" fill="#0072B2" opacity="0.58"/><circle cx="1143.8" cy="413.5" r="5.4" class="" fill="#0072B2" opacity="0.58"/><circle cx="1173" cy="424" r="5.6" class="" fill="#4D4D4D" opacity="0.92"/><text x="1173" y="379" class="tiny" text-anchor="middle"><tspan>credible</tspan><tspan dx="0.32em">region</tspan></text><text x="1003" y="496" class="cfm-label" text-anchor="middle"><tspan>source</tspan></text><text x="1003" y="523" class="cfm-sub" text-anchor="middle"><tspan x="1003" dy="0">noise</tspan><tspan dx="0.32em">z0,</tspan><tspan x="1003" dy="31">t=0</tspan></text><text x="1173" y="496" class="cfm-label" text-anchor="middle"><tspan>posterior</tspan></text><text x="1173" y="523" class="cfm-sub" text-anchor="middle"><tspan x="1173" dy="0">samples</tspan><tspan dx="0.32em">p(x</tspan><tspan dx="0.32em">|</tspan><tspan dx="0.32em">c),</tspan><tspan x="1173" dy="31">t=1</tspan></text><rect x="1365" y="199" width="310" height="82" class="" rx="8" fill="#E5F1F8" stroke="#0072B2" stroke-width="1.5"/><circle cx="1390" cy="228" r="10" class="" fill="#0072B2"/><text x="1411" y="224" class="metric" ><tspan>Point</tspan><tspan dx="0.32em">accuracy</tspan></text><text x="1411" y="249" class="metric-val" ><tspan>CFM</tspan><tspan dx="0.32em">0.354</tspan><tspan dx="0.32em">cm;</tspan></text><text x="1411" y="273" class="metric-val" ><tspan>backbone</tspan><tspan dx="0.32em">0.340</tspan><tspan dx="0.32em">cm</tspan></text><rect x="1365" y="288" width="310" height="82" class="" rx="8" fill="#E5F1F8" stroke="#0072B2" stroke-width="1.5"/><circle cx="1390" cy="317" r="10" class="" fill="#0072B2"/><text x="1411" y="313" class="metric" ><tspan>Calibration</tspan></text><text x="1411" y="338" class="metric-val" ><tspan>cov90</tspan><tspan dx="0.32em">=</tspan><tspan dx="0.32em">0.970;</tspan></text><text x="1411" y="362" class="metric-val" ><tspan>cov95</tspan><tspan dx="0.32em">=</tspan><tspan dx="0.32em">0.975</tspan></text><rect x="1365" y="377" width="310" height="82" class="" rx="8" fill="#F7F9FA" stroke="#4D4D4D" stroke-width="1.5"/><circle cx="1390" cy="406" r="10" class="" fill="#4D4D4D"/><text x="1411" y="402" class="metric" ><tspan>Discrimination</tspan></text><text x="1411" y="427" class="metric-val" ><tspan>error-spread</tspan><tspan dx="0.32em">rank</tspan></text><text x="1411" y="451" class="metric-val" ><tspan>rho</tspan><tspan dx="0.32em">approx</tspan><tspan dx="0.32em">0.60</tspan></text><rect x="1365" y="466" width="310" height="82" class="" rx="8" fill="#FBE9DD" stroke="#D55E00" stroke-width="1.5"/><circle cx="1390" cy="495" r="10" class="" fill="#D55E00"/><text x="1411" y="491" class="metric" ><tspan>Modality</tspan></text><text x="1411" y="516" class="metric-val" ><tspan>bimodal</tspan><tspan dx="0.32em">only</tspan><tspan dx="0.32em">under</tspan></text><text x="1411" y="540" class="metric-val" ><tspan>geometric</tspan><tspan dx="0.32em">ambiguity</tspan></text><rect x="1365" y="560" width="310" height="120" class="" rx="8" fill="#fff" stroke="#999999" stroke-width="1.7" stroke-dasharray="9 7"/><text x="1520" y="586" class="small" text-anchor="middle"><tspan x="1520" dy="0">Physical</tspan><tspan dx="0.32em">phantom</tspan><tspan dx="0.32em">+</tspan><tspan dx="0.32em">SDR</tspan><tspan x="1520" dy="31">validation</tspan></text><text x="1520" y="642" class="tiny" text-anchor="middle"><tspan x="1520" dy="0">future</tspan><tspan dx="0.32em">gate;</tspan><tspan x="1520" dy="27">not</tspan><tspan dx="0.32em">claimed</tspan><tspan dx="0.32em">here</tspan></text></g>
</svg>
