<?xml version="1.0" encoding="UTF-8"?>
<svg xmlns="http://www.w3.org/2000/svg" width="515.5pt" height="154.65pt" viewBox="0 0 515.5 154.65">
<defs>
  <marker id="arrow" markerWidth="8" markerHeight="8" refX="7" refY="4" orient="auto">
    <path d="M1,1 L7,4 L1,7 Z" fill="#4D4D4D"/>
  </marker>
  <style>
    text { font-family: Arial, Helvetica, sans-serif; fill: #4D4D4D; }
    .title { font-size: 25px; font-weight: 700; }
    .subtitle { font-size: 21px; fill: #999999; }
    .block-title { font-size: 21px; font-weight: 700; }
    .feature-symbol { font-size: 21px; font-weight: 700; fill: #0072B2; }
    .label { font-size: 21px; font-weight: 700; }
    .small { font-size: 21px; fill: #4D4D4D; }
    .tiny { font-size: 21px; fill: #999999; }
    .micro { font-size: 21px; fill: #999999; }
    .rx-label { font-size: 21px; font-weight: 700; fill: #4D4D4D; }
  </style>
</defs>
<g transform="scale(0.34366667)">
<rect width="1500" height="450" fill="white"/>
<text x="750" y="42" class="title" text-anchor="middle"><tspan>RF</tspan><tspan dx="0.32em">condition:</tspan><tspan dx="0.32em">measurement</tspan><tspan dx="0.32em">to</tspan><tspan dx="0.32em">posterior</tspan><tspan dx="0.32em">conditioning</tspan></text>
<text x="750" y="70" class="subtitle" text-anchor="middle"><tspan>Capsule</tspan><tspan dx="0.32em">Tx</tspan><tspan dx="0.32em">radiates</tspan><tspan dx="0.32em">to</tspan><tspan dx="0.32em">four</tspan><tspan dx="0.32em">side-wall</tspan><tspan dx="0.32em">receivers;</tspan><tspan dx="0.32em">S-parameters</tspan><tspan dx="0.32em">become</tspan><tspan dx="0.32em">the</tspan><tspan dx="0.32em">180-D</tspan><tspan dx="0.32em">condition</tspan><tspan dx="0.32em">vector.</tspan></text>
<g><polygon points="141.0205,150.7795 240.1195,141.7705 352.97950000000003,186.9145 253.8805,195.92350000000002" fill="#F7F9FA" stroke="#4D4D4D" stroke-width="1.1" opacity="0.42"/><polygon points="141.0205,325.0855 240.1195,316.0765 352.97950000000003,361.2205 253.8805,370.22950000000003" fill="#EEEEEE" stroke="#4D4D4D" stroke-width="1.1" opacity="0.22"/><line x1="141.0205" y1="325.0855" x2="240.1195" y2="316.0765" stroke="#4D4D4D" stroke-width="1.35" opacity="0.72"/><line x1="240.1195" y1="316.0765" x2="352.97950000000003" y2="361.2205" stroke="#4D4D4D" stroke-width="1.35" opacity="0.72"/><line x1="352.97950000000003" y1="361.2205" x2="253.8805" y2="370.22950000000003" stroke="#4D4D4D" stroke-width="1.35" opacity="0.72"/><line x1="253.8805" y1="370.22950000000003" x2="141.0205" y2="325.0855" stroke="#4D4D4D" stroke-width="1.35" opacity="0.72"/><line x1="141.0205" y1="150.7795" x2="240.1195" y2="141.7705" stroke="#4D4D4D" stroke-width="1.35" opacity="0.72"/><line x1="240.1195" y1="141.7705" x2="352.97950000000003" y2="186.9145" stroke="#4D4D4D" stroke-width="1.35" opacity="0.72"/><line x1="352.97950000000003" y1="186.9145" x2="253.8805" y2="195.92350000000002" stroke="#4D4D4D" stroke-width="1.35" opacity="0.72"/><line x1="253.8805" y1="195.92350000000002" x2="141.0205" y2="150.7795" stroke="#4D4D4D" stroke-width="1.35" opacity="0.72"/><line x1="141.0205" y1="325.0855" x2="141.0205" y2="150.7795" stroke="#4D4D4D" stroke-width="1.35" opacity="0.72"/><line x1="240.1195" y1="316.0765" x2="240.1195" y2="141.7705" stroke="#4D4D4D" stroke-width="1.35" opacity="0.72"/><line x1="352.97950000000003" y1="361.2205" x2="352.97950000000003" y2="186.9145" stroke="#4D4D4D" stroke-width="1.35" opacity="0.72"/><line x1="253.8805" y1="370.22950000000003" x2="253.8805" y2="195.92350000000002" stroke="#4D4D4D" stroke-width="1.35" opacity="0.72"/><polygon points="185.805625,229.158625 195.334375,228.292375 195.334375,153.05237499999998 185.805625,153.91862500000002" fill="#0072B2" stroke="#4D4D4D" stroke-width="1.25" opacity="0.96"/><text x="180.47199999999998" y="156.6568" class="rx-label" text-anchor="middle"><tspan>P1</tspan></text><polygon points="193.55237499999998,342.02275 193.55237499999998,266.78275 201.348625,269.90125 201.348625,345.14125" fill="#0072B2" stroke="#4D4D4D" stroke-width="1.25" opacity="0.96"/><text x="176.7595" y="307.843" class="rx-label" text-anchor="middle"><tspan>P4</tspan></text><polygon points="292.65137500000003,245.23375 292.65137500000003,169.99374999999998 300.447625,173.11225 300.447625,248.35225" fill="#0072B2" stroke="#4D4D4D" stroke-width="1.25" opacity="0.96"/><text x="315.7885" y="207.424" class="rx-label" text-anchor="middle"><tspan>P3</tspan></text><polygon points="298.665625,362.082625 308.194375,361.21637499999997 308.194375,285.976375 298.665625,286.842625" fill="#0072B2" stroke="#4D4D4D" stroke-width="1.25" opacity="0.96"/><text x="315.01300000000003" y="357.1912" class="rx-label" text-anchor="middle"><tspan>P2</tspan></text><ellipse cx="247" cy="256" rx="86" ry="34" fill="none" stroke="#0072B2" stroke-width="1.25" opacity="0.28"/><ellipse cx="247" cy="256" rx="58" ry="23" fill="none" stroke="#0072B2" stroke-width="1.25" opacity="0.36"/><ellipse cx="247" cy="256" rx="28" ry="12" fill="#FBE9DD" stroke="#D55E00" stroke-width="1.4"/><line x1="230" y1="256" x2="264" y2="256" stroke="#D55E00" stroke-width="1.25"/><text x="247" y="261" class="rx-label" text-anchor="middle" fill="#D55E00"><tspan>Tx</tspan></text></g>
<text x="248" y="396" class="small" text-anchor="middle"><tspan>capsule</tspan><tspan dx="0.32em">Tx</tspan><tspan dx="0.32em">inside</tspan><tspan dx="0.32em">phantom</tspan></text>
<text x="248" y="418" class="tiny" text-anchor="middle"><tspan>4</tspan><tspan dx="0.32em">Rx</tspan><tspan dx="0.32em">on</tspan><tspan dx="0.32em">+/-x</tspan><tspan dx="0.32em">and</tspan><tspan dx="0.32em">+/-z</tspan><tspan dx="0.32em">side</tspan><tspan dx="0.32em">walls</tspan></text>
<line x1="452" y1="216" x2="525" y2="216" stroke="#4D4D4D" stroke-width="1.45" stroke-linecap="round" marker-end="url(#arrow)"/>
<text x="489" y="197" class="tiny" text-anchor="middle"><tspan>capture</tspan></text>
<g><rect x="548" y="124" width="255" height="165" rx="4" fill="#FFFFFF" stroke="#BDBDBD" stroke-width="1.25"/><text x="675.5" y="150" class="block-title" text-anchor="middle"><tspan>S-parameters</tspan></text><line x1="572" y1="248" x2="779" y2="248" stroke="#4D4D4D" stroke-width="1" opacity="0.72"/><line x1="572" y1="178" x2="572" y2="248" stroke="#4D4D4D" stroke-width="1" opacity="0.72"/><path d="M572,206.8L572.651,206.376C573.302,205.953,574.604,205.105,575.906,204.274C577.208,203.442,578.509,202.626,579.811,201.834C581.113,201.041,582.415,200.273,583.717,199.537C585.019,198.801,586.321,198.098,587.623,197.433C588.925,196.769,590.226,196.145,591.528,195.566C592.83,194.988,594.132,194.457,595.434,193.977C596.736,193.498,598.038,193.071,599.34,192.701C600.642,192.332,601.943,192.02,603.245,191.769C604.547,191.518,605.849,191.328,607.151,191.202C608.453,191.076,609.755,191.014,611.057,191.018C612.358,191.022,613.66,191.091,614.962,191.226C616.264,191.36,617.566,191.561,618.868,191.826C620.17,192.091,621.472,192.421,622.774,192.813C624.075,193.205,625.377,193.66,626.679,194.173C627.981,194.687,629.283,195.259,630.585,195.885C631.887,196.512,633.189,197.192,634.491,197.921C635.792,198.65,637.094,199.428,638.396,200.247C639.698,201.066,641,201.927,642.302,202.823C643.604,203.718,644.906,204.648,646.208,205.603C647.509,206.559,648.811,207.541,650.113,208.54C651.415,209.539,652.717,210.555,654.019,211.58C655.321,212.605,656.623,213.638,657.925,214.67C659.226,215.703,660.528,216.734,661.83,217.755C663.132,218.776,664.434,219.787,665.736,220.779C667.038,221.771,668.34,222.744,669.642,223.688C670.943,224.633,672.245,225.55,673.547,226.431C674.849,227.312,676.151,228.157,677.453,228.959C678.755,229.76,680.057,230.518,681.358,231.226C682.66,231.934,683.962,232.592,685.264,233.195C686.566,233.797,687.868,234.344,689.17,234.83C690.472,235.316,691.774,235.742,693.075,236.105C694.377,236.467,695.679,236.766,696.981,236.998C698.283,237.231,699.585,237.398,700.887,237.498C702.189,237.598,703.491,237.631,704.792,237.598C706.094,237.565,707.396,237.466,708.698,237.301C710,237.137,711.302,236.907,712.604,236.616C713.906,236.325,715.208,235.972,716.509,235.561C717.811,235.149,719.113,234.68,720.415,234.158C721.717,233.636,723.019,233.062,724.321,232.44C725.623,231.819,726.925,231.15,728.226,230.442C729.528,229.734,730.83,228.986,732.132,228.206C733.434,227.426,734.736,226.614,736.038,225.778C737.34,224.942,738.642,224.081,739.943,223.206C741.245,222.33,742.547,221.44,743.849,220.542C745.151,219.645,746.453,218.741,747.755,217.839C749.057,216.938,750.358,216.038,751.66,215.15C752.962,214.262,754.264,213.385,755.566,212.527C756.868,211.669,758.17,210.83,759.472,210.019C760.774,209.208,762.075,208.424,763.377,207.675C764.679,206.925,765.981,206.211,767.283,205.537C768.585,204.863,769.887,204.231,771.189,203.645C772.491,203.059,773.792,202.519,775.094,202.031C776.396,201.543,777.698,201.106,778.349,200.887L779,200.669" fill="none" stroke="#D55E00" stroke-width="1.55" opacity="0.95"/><path d="M572,204.04L572.651,203.765C573.302,203.489,574.604,202.937,575.906,202.429C577.208,201.92,578.509,201.454,579.811,201.037C581.113,200.62,582.415,200.252,583.717,199.937C585.019,199.623,586.321,199.362,587.623,199.158C588.925,198.955,590.226,198.809,591.528,198.723C592.83,198.637,594.132,198.612,595.434,198.648C596.736,198.684,598.038,198.782,599.34,198.942C600.642,199.102,601.943,199.324,603.245,199.607C604.547,199.89,605.849,200.234,607.151,200.637C608.453,201.04,609.755,201.502,611.057,202.019C612.358,202.536,613.66,203.109,614.962,203.733C616.264,204.356,617.566,205.031,618.868,205.75C620.17,206.47,621.472,207.235,622.774,208.039C624.075,208.842,625.377,209.685,626.679,210.558C627.981,211.432,629.283,212.337,630.585,213.266C631.887,214.194,633.189,215.146,634.491,216.113C635.792,217.079,637.094,218.06,638.396,219.047C639.698,220.034,641,221.027,642.302,222.017C643.604,223.006,644.906,223.993,646.208,224.967C647.509,225.941,648.811,226.902,650.113,227.842C651.415,228.783,652.717,229.702,654.019,230.591C655.321,231.48,656.623,232.339,657.925,233.16C659.226,233.981,660.528,234.765,661.83,235.503C663.132,236.241,664.434,236.934,665.736,237.575C667.038,238.216,668.34,238.806,669.642,239.338C670.943,239.87,672.245,240.345,673.547,240.758C674.849,241.171,676.151,241.522,677.453,241.808C678.755,242.094,680.057,242.315,681.358,242.469C682.66,242.623,683.962,242.71,685.264,242.728C686.566,242.747,687.868,242.697,689.17,242.58C690.472,242.464,691.774,242.279,693.075,242.029C694.377,241.779,695.679,241.462,696.981,241.084C698.283,240.705,699.585,240.263,700.887,239.763C702.189,239.262,703.491,238.703,704.792,238.091C706.094,237.479,707.396,236.813,708.698,236.1C710,235.387,711.302,234.627,712.604,233.827C713.906,233.027,715.208,232.188,716.509,231.316C717.811,230.443,719.113,229.539,720.415,228.611C721.717,227.684,723.019,226.732,724.321,225.766C725.623,224.799,726.925,223.818,728.226,222.831C729.528,221.844,730.83,220.851,732.132,219.862C733.434,218.872,734.736,217.886,736.038,216.912C737.34,215.938,738.642,214.977,739.943,214.036C741.245,213.096,742.547,212.176,743.849,211.286C745.151,210.396,746.453,209.535,747.755,208.71C749.057,207.886,750.358,207.099,751.66,206.355C752.962,205.611,754.264,204.91,755.566,204.26C756.868,203.609,758.17,203.007,759.472,202.46C760.774,201.913,762.075,201.42,763.377,200.985C764.679,200.55,765.981,200.174,767.283,199.857C768.585,199.541,769.887,199.285,771.189,199.092C772.491,198.898,773.792,198.766,775.094,198.696C776.396,198.626,777.698,198.618,778.349,198.614L779,198.61" fill="none" stroke="#0072B2" stroke-width="1.55" opacity="0.68"/><path d="M572,207.349L572.651,207.269C573.302,207.189,574.604,207.029,575.906,206.925C577.208,206.82,578.509,206.772,579.811,206.781C581.113,206.79,582.415,206.857,583.717,206.982C585.019,207.106,586.321,207.289,587.623,207.529C588.925,207.769,590.226,208.066,591.528,208.418C592.83,208.771,594.132,209.179,595.434,209.639C596.736,210.099,598.038,210.611,599.34,211.171C600.642,211.732,601.943,212.34,603.245,212.991C604.547,213.642,605.849,214.335,607.151,215.065C608.453,215.795,609.755,216.562,611.057,217.358C612.358,218.153,613.66,218.979,614.962,219.825C616.264,220.672,617.566,221.541,618.868,222.422C620.17,223.304,621.472,224.199,622.774,225.099C624.075,225.999,625.377,226.903,626.679,227.804C627.981,228.704,629.283,229.6,630.585,230.484C631.887,231.367,633.189,232.237,634.491,233.086C635.792,233.935,637.094,234.762,638.396,235.559C639.698,236.356,641,237.123,642.302,237.853C643.604,238.582,644.906,239.274,646.208,239.92C647.509,240.567,648.811,241.169,650.113,241.719C651.415,242.27,652.717,242.769,654.019,243.212C655.321,243.654,656.623,244.04,657.925,244.365C659.226,244.69,660.528,244.954,661.83,245.154C663.132,245.353,664.434,245.489,665.736,245.558C667.038,245.628,668.34,245.631,669.642,245.568C670.943,245.504,672.245,245.374,673.547,245.177C674.849,244.981,676.151,244.718,677.453,244.39C678.755,244.063,680.057,243.671,681.358,243.218C682.66,242.765,683.962,242.251,685.264,241.68C686.566,241.108,687.868,240.48,689.17,239.799C690.472,239.119,691.774,238.387,693.075,237.61C694.377,236.833,695.679,236.01,696.981,235.15C698.283,234.289,699.585,233.39,700.887,232.461C702.189,231.532,703.491,230.573,704.792,229.592C706.094,228.612,707.396,227.609,708.698,226.594C710,225.58,711.302,224.552,712.604,223.521C713.906,222.49,715.208,221.455,716.509,220.427C717.811,219.398,719.113,218.375,720.415,217.367C721.717,216.359,723.019,215.366,724.321,214.397C725.623,213.428,726.925,212.482,728.226,211.569C729.528,210.655,730.83,209.774,732.132,208.932C733.434,208.091,734.736,207.289,736.038,206.534C737.34,205.779,738.642,205.071,739.943,204.415C741.245,203.759,742.547,203.156,743.849,202.611C745.151,202.066,746.453,201.578,747.755,201.152C749.057,200.726,750.358,200.362,751.66,200.061C752.962,199.761,754.264,199.525,755.566,199.354C756.868,199.183,758.17,199.078,759.472,199.039C760.774,198.999,762.075,199.025,763.377,199.116C764.679,199.207,765.981,199.362,767.283,199.579C768.585,199.796,769.887,200.076,771.189,200.413C772.491,200.751,773.792,201.148,775.094,201.598C776.396,202.048,777.698,202.552,778.349,202.804L779,203.056" fill="none" stroke="#0072B2" stroke-width="1.55" opacity="0.68"/><path d="M572,214.185L572.651,214.284C573.302,214.384,574.604,214.583,575.906,214.835C577.208,215.087,578.509,215.392,579.811,215.748C581.113,216.104,582.415,216.51,583.717,216.963C585.019,217.416,586.321,217.915,587.623,218.457C588.925,218.998,590.226,219.581,591.528,220.2C592.83,220.819,594.132,221.474,595.434,222.159C596.736,222.843,598.038,223.557,599.34,224.293C600.642,225.028,601.943,225.786,603.245,226.558C604.547,227.33,605.849,228.116,607.151,228.907C608.453,229.699,609.755,230.496,611.057,231.291C612.358,232.086,613.66,232.878,614.962,233.659C616.264,234.44,617.566,235.21,618.868,235.96C620.17,236.71,621.472,237.441,622.774,238.143C624.075,238.846,625.377,239.521,626.679,240.161C627.981,240.801,629.283,241.405,630.585,241.967C631.887,242.53,633.189,243.05,634.491,243.521C635.792,243.992,637.094,244.416,638.396,244.785C639.698,245.154,641,245.47,642.302,245.727C643.604,245.985,644.906,246.185,646.208,246.323C647.509,246.462,648.811,246.539,650.113,246.554C651.415,246.568,652.717,246.52,654.019,246.408C655.321,246.296,656.623,246.12,657.925,245.881C659.226,245.642,660.528,245.34,661.83,244.977C663.132,244.614,664.434,244.189,665.736,243.707C667.038,243.224,668.34,242.683,669.642,242.088C670.943,241.493,672.245,240.844,673.547,240.147C674.849,239.449,676.151,238.703,677.453,237.914C678.755,237.126,680.057,236.295,681.358,235.429C682.66,234.563,683.962,233.661,685.264,232.733C686.566,231.804,687.868,230.848,689.17,229.873C690.472,228.899,691.774,227.905,693.075,226.902C694.377,225.898,695.679,224.885,696.981,223.871C698.283,222.857,699.585,221.842,700.887,220.835C702.189,219.829,703.491,218.831,704.792,217.85C706.094,216.869,707.396,215.906,708.698,214.97C710,214.033,711.302,213.122,712.604,212.246C713.906,211.37,715.208,210.529,716.509,209.729C717.811,208.93,719.113,208.173,720.415,207.465C721.717,206.757,723.019,206.098,724.321,205.495C725.623,204.891,726.925,204.342,728.226,203.853C729.528,203.365,730.83,202.936,732.132,202.571C733.434,202.206,734.736,201.905,736.038,201.67C737.34,201.435,738.642,201.266,739.943,201.165C741.245,201.064,742.547,201.031,743.849,201.065C745.151,201.1,746.453,201.202,747.755,201.37C749.057,201.539,750.358,201.774,751.66,202.072C752.962,202.371,754.264,202.734,755.566,203.157C756.868,203.58,758.17,204.063,759.472,204.602C760.774,205.141,762.075,205.735,763.377,206.378C764.679,207.022,765.981,207.715,767.283,208.451C768.585,209.187,769.887,209.965,771.189,210.779C772.491,211.593,773.792,212.442,775.094,213.318C776.396,214.195,777.698,215.098,778.349,215.549L779,216.001" fill="none" stroke="#0072B2" stroke-width="1.55" opacity="0.68"/><text x="675.5" y="272" class="tiny" text-anchor="middle"><tspan>S_i5(f),</tspan><tspan dx="0.32em">i=1..4</tspan></text></g>
<line x1="818" y1="216" x2="885" y2="216" stroke="#4D4D4D" stroke-width="1.45" stroke-linecap="round" marker-end="url(#arrow)"/>
<text x="852" y="197" class="tiny" text-anchor="middle"><tspan>derive</tspan></text>
<g><rect x="908" y="124" width="270" height="165" rx="4" fill="#FFFFFF" stroke="#BDBDBD" stroke-width="1.25"/><text x="1043" y="150" class="block-title" text-anchor="middle"><tspan>180-D</tspan><tspan dx="0.32em">rich</tspan><tspan dx="0.32em">feature</tspan><tspan dx="0.32em">vector</tspan></text><text x="1043" y="178" class="feature-symbol" text-anchor="middle"><tspan>x_RF</tspan><tspan dx="0.32em">in</tspan><tspan dx="0.32em">R^180</tspan></text><rect x="928" y="194" width="28" height="36" fill="#0072B2" opacity="0.12" stroke="#0072B2" stroke-width="1"/><line x1="937" y1="194" x2="937" y2="230" stroke="#0072B2" stroke-width="0.8" opacity="0.35"/><line x1="946" y1="194" x2="946" y2="230" stroke="#0072B2" stroke-width="0.8" opacity="0.35"/><text x="942" y="251" class="micro" text-anchor="middle" textLength="23.0" lengthAdjust="spacingAndGlyphs"><tspan>RSSI</tspan></text><rect x="956" y="194" width="42" height="36" fill="#D55E00" opacity="0.12" stroke="#D55E00" stroke-width="1"/><line x1="965" y1="194" x2="965" y2="230" stroke="#D55E00" stroke-width="0.8" opacity="0.35"/><line x1="974" y1="194" x2="974" y2="230" stroke="#D55E00" stroke-width="0.8" opacity="0.35"/><line x1="983" y1="194" x2="983" y2="230" stroke="#D55E00" stroke-width="0.8" opacity="0.35"/><text x="977" y="275" class="micro" text-anchor="middle" textLength="37.0" lengthAdjust="spacingAndGlyphs"><tspan>phase</tspan></text><rect x="998" y="194" width="38" height="36" fill="#0072B2" opacity="0.12" stroke="#0072B2" stroke-width="1"/><line x1="1007" y1="194" x2="1007" y2="230" stroke="#0072B2" stroke-width="0.8" opacity="0.35"/><line x1="1016" y1="194" x2="1016" y2="230" stroke="#0072B2" stroke-width="0.8" opacity="0.35"/><line x1="1025" y1="194" x2="1025" y2="230" stroke="#0072B2" stroke-width="0.8" opacity="0.35"/><text x="1017" y="251" class="micro" text-anchor="middle" textLength="33.0" lengthAdjust="spacingAndGlyphs"><tspan>slope</tspan></text><rect x="1036" y="194" width="40" height="36" fill="#D55E00" opacity="0.12" stroke="#D55E00" stroke-width="1"/><line x1="1045" y1="194" x2="1045" y2="230" stroke="#D55E00" stroke-width="0.8" opacity="0.35"/><line x1="1054" y1="194" x2="1054" y2="230" stroke="#D55E00" stroke-width="0.8" opacity="0.35"/><line x1="1063" y1="194" x2="1063" y2="230" stroke="#D55E00" stroke-width="0.8" opacity="0.35"/><text x="1056" y="275" class="micro" text-anchor="middle" textLength="35.0" lengthAdjust="spacingAndGlyphs"><tspan>delay</tspan></text><rect x="1076" y="194" width="46" height="36" fill="#0072B2" opacity="0.12" stroke="#0072B2" stroke-width="1"/><line x1="1085" y1="194" x2="1085" y2="230" stroke="#0072B2" stroke-width="0.8" opacity="0.35"/><line x1="1094" y1="194" x2="1094" y2="230" stroke="#0072B2" stroke-width="0.8" opacity="0.35"/><line x1="1103" y1="194" x2="1103" y2="230" stroke="#0072B2" stroke-width="0.8" opacity="0.35"/><line x1="1112" y1="194" x2="1112" y2="230" stroke="#0072B2" stroke-width="0.8" opacity="0.35"/><text x="1099" y="251" class="micro" text-anchor="middle" textLength="41.0" lengthAdjust="spacingAndGlyphs"><tspan>pairs</tspan></text><rect x="1122" y="194" width="36" height="36" fill="#D55E00" opacity="0.12" stroke="#D55E00" stroke-width="1"/><line x1="1131" y1="194" x2="1131" y2="230" stroke="#D55E00" stroke-width="0.8" opacity="0.35"/><line x1="1140" y1="194" x2="1140" y2="230" stroke="#D55E00" stroke-width="0.8" opacity="0.35"/><line x1="1149" y1="194" x2="1149" y2="230" stroke="#D55E00" stroke-width="0.8" opacity="0.35"/><text x="1140" y="275" class="micro" text-anchor="middle" textLength="31.0" lengthAdjust="spacingAndGlyphs"><tspan>stats</tspan></text></g>
<line x1="1195" y1="216" x2="1258" y2="216" stroke="#4D4D4D" stroke-width="1.45" stroke-linecap="round" marker-end="url(#arrow)"/>
<text x="1227" y="197" class="tiny" text-anchor="middle"><tspan>condition</tspan></text>
<g><rect x="1280" y="132" width="205" height="150" rx="4" fill="#FFFFFF" stroke="#0072B2" stroke-width="1.35"/><ellipse cx="1382" cy="214" rx="66" ry="25" fill="#E5F1F8" stroke="none" opacity="0.9"/><ellipse cx="1382" cy="214" rx="52" ry="19" fill="none" stroke="#0072B2" stroke-width="1.35" opacity="0.85"/><ellipse cx="1382" cy="214" rx="31" ry="12" fill="none" stroke="#0072B2" stroke-width="1.15" opacity="0.65"/><circle cx="1412" cy="214" r="2.9" fill="#0072B2" opacity="0.62"/><circle cx="1423.574578963008" cy="220.19947160431445" r="2.9" fill="#0072B2" opacity="0.62"/><circle cx="1413.8198051533946" cy="225.45512985522208" r="2.9" fill="#0072B2" opacity="0.62"/><circle cx="1393.4805029709528" cy="223.9778989511219" r="2.9" fill="#0072B2" opacity="0.62"/><circle cx="1382" cy="230.2" r="2.9" fill="#0072B2" opacity="0.62"/><circle cx="1364.779245543571" cy="228.96684842668284" r="2.9" fill="#0072B2" opacity="0.62"/><circle cx="1360.7867965644036" cy="221.6367532368147" r="2.9" fill="#0072B2" opacity="0.62"/><circle cx="1340.425421036992" cy="220.19947160431445" r="2.9" fill="#0072B2" opacity="0.62"/><circle cx="1337" cy="214" r="2.9" fill="#0072B2" opacity="0.62"/><circle cx="1354.2836140246613" cy="209.86701893045702" r="2.9" fill="#0072B2" opacity="0.62"/><circle cx="1350.1801948466054" cy="202.54487014477792" r="2.9" fill="#0072B2" opacity="0.62"/><circle cx="1364.7792455435708" cy="199.03315157331716" r="2.9" fill="#0072B2" opacity="0.62"/><circle cx="1382" cy="203.2" r="2.9" fill="#0072B2" opacity="0.62"/><circle cx="1399.220754456429" cy="199.03315157331716" r="2.9" fill="#0072B2" opacity="0.62"/><circle cx="1413.8198051533946" cy="202.54487014477792" r="2.9" fill="#0072B2" opacity="0.62"/><circle cx="1409.7163859753387" cy="209.86701893045702" r="2.9" fill="#0072B2" opacity="0.62"/><circle cx="1382" cy="214" r="4.2" fill="#4D4D4D" opacity="0.9"/><text x="1382" y="159" class="block-title" text-anchor="middle"><tspan>CFM</tspan><tspan dx="0.32em">posterior</tspan></text><text x="1382" y="267" class="tiny" text-anchor="middle"><tspan>p(x</tspan><tspan dx="0.32em">|</tspan><tspan dx="0.32em">x_RF)</tspan></text></g>
</g>
</svg>
