<?xml version="1.0" encoding="UTF-8"?>
<svg xmlns="http://www.w3.org/2000/svg" width="515.5pt" height="151.94pt" viewBox="0 0 515.5 151.94">
<defs>
  <linearGradient id="flowStroke" x1="0%" x2="100%" y1="0%" y2="0%">
    <stop offset="0%" stop-color="#6e777c" stop-opacity="0.50"/>
    <stop offset="42%" stop-color="#0072B2" stop-opacity="0.46"/>
    <stop offset="100%" stop-color="#1b6b2a" stop-opacity="0.62"/>
  </linearGradient>
  <linearGradient id="ribbon" x1="0%" x2="100%" y1="0%" y2="0%">
    <stop offset="0%" stop-color="#0072B2" stop-opacity="0.08"/>
    <stop offset="65%" stop-color="#0072B2" stop-opacity="0.10"/>
    <stop offset="100%" stop-color="#1b6b2a" stop-opacity="0.12"/>
  </linearGradient>
  <radialGradient id="posteriorGlow" cx="50%" cy="50%" r="58%">
    <stop offset="0%" stop-color="#74a878" stop-opacity="0.33"/>
    <stop offset="100%" stop-color="#74a878" stop-opacity="0"/>
  </radialGradient>
  <marker id="arrowGreen" markerWidth="12" markerHeight="12" refX="10" refY="6" orient="auto">
    <path d="M2,2 L10,6 L2,10 Z" fill="#1b6b2a"/>
  </marker>
  <marker id="arrowBlue" markerWidth="10" markerHeight="10" refX="8" refY="5" orient="auto">
    <path d="M2,2 L8,5 L2,8 Z" fill="#0072B2"/>
  </marker>
  <style>
    .label { font: 700 30px Arial, Helvetica, sans-serif; fill: #1f2528; }
    .small { font: 26px Arial, Helvetica, sans-serif; fill: #5c656b; }
    .tiny { font: 26px Arial, Helvetica, sans-serif; fill: #5c656b; }
    .stage { font: 700 28px Arial, Helvetica, sans-serif; fill: #1f2528; }
    .cond-mini { font: 700 26px Arial, Helvetica, sans-serif; fill: #4D4D4D; }
    .math { font: italic 26px "Times New Roman", Times, serif; fill: #1f2528; }
  </style>
</defs>
<g transform="scale(0.27131579)">
<g id="condition"><g><polygon points="110.37575000000001,173.82425 168.93425,168.50074999999998 235.62425,195.17675 177.06575,200.50025" fill="#f7f9fa" stroke="#4D4D4D" stroke-width="0.95" opacity="0.4"/><polygon points="110.37575000000001,276.82325 168.93425,271.49975 235.62425,298.17575 177.06575,303.49925" fill="#eeeeee" stroke="#4D4D4D" stroke-width="0.95" opacity="0.2"/><line x1="110.37575000000001" y1="276.82325" x2="168.93425" y2="271.49975" stroke="#4D4D4D" stroke-width="1.05" opacity="0.68"/><line x1="168.93425" y1="271.49975" x2="235.62425" y2="298.17575" stroke="#4D4D4D" stroke-width="1.05" opacity="0.68"/><line x1="235.62425" y1="298.17575" x2="177.06575" y2="303.49925" stroke="#4D4D4D" stroke-width="1.05" opacity="0.68"/><line x1="177.06575" y1="303.49925" x2="110.37575000000001" y2="276.82325" stroke="#4D4D4D" stroke-width="1.05" opacity="0.68"/><line x1="110.37575000000001" y1="173.82425" x2="168.93425" y2="168.50074999999998" stroke="#4D4D4D" stroke-width="1.05" opacity="0.68"/><line x1="168.93425" y1="168.50074999999998" x2="235.62425" y2="195.17675" stroke="#4D4D4D" stroke-width="1.05" opacity="0.68"/><line x1="235.62425" y1="195.17675" x2="177.06575" y2="200.50025" stroke="#4D4D4D" stroke-width="1.05" opacity="0.68"/><line x1="177.06575" y1="200.50025" x2="110.37575000000001" y2="173.82425" stroke="#4D4D4D" stroke-width="1.05" opacity="0.68"/><line x1="110.37575000000001" y1="276.82325" x2="110.37575000000001" y2="173.82425" stroke="#4D4D4D" stroke-width="1.05" opacity="0.68"/><line x1="168.93425" y1="271.49975" x2="168.93425" y2="168.50074999999998" stroke="#4D4D4D" stroke-width="1.05" opacity="0.68"/><line x1="235.62425" y1="298.17575" x2="235.62425" y2="195.17675" stroke="#4D4D4D" stroke-width="1.05" opacity="0.68"/><line x1="177.06575" y1="303.49925" x2="177.06575" y2="200.50025" stroke="#4D4D4D" stroke-width="1.05" opacity="0.68"/><polygon points="136.8396875,220.1391875 142.4703125,219.62731250000002 142.4703125,175.1673125 136.8396875,175.6791875" fill="#0072B2" stroke="#4D4D4D" stroke-width="1.05" opacity="0.96"/><polygon points="141.4173125,286.83162500000003 141.4173125,242.371625 146.02418749999998,244.214375 146.02418749999998,288.674375" fill="#0072B2" stroke="#4D4D4D" stroke-width="1.05" opacity="0.96"/><polygon points="199.97581250000002,229.638125 199.97581250000002,185.178125 204.5826875,187.020875 204.5826875,231.480875" fill="#0072B2" stroke="#4D4D4D" stroke-width="1.05" opacity="0.96"/><polygon points="203.5296875,298.6851875 209.1603125,298.1733125 209.1603125,253.7133125 203.5296875,254.2251875" fill="#0072B2" stroke="#4D4D4D" stroke-width="1.05" opacity="0.96"/><ellipse cx="173" cy="236" rx="48" ry="19" fill="none" stroke="#0072B2" stroke-width="1" opacity="0.36"/><ellipse cx="173" cy="236" rx="31" ry="12" fill="none" stroke="#0072B2" stroke-width="1" opacity="0.42"/><ellipse cx="173" cy="236" rx="16" ry="7" fill="#FBE9DD" stroke="#D55E00" stroke-width="1.15"/><line x1="163" y1="236" x2="183" y2="236" stroke="#D55E00" stroke-width="1.05"/><text x="173" y="240" class="cond-mini" text-anchor="middle" fill="#D55E00"><tspan>Tx</tspan></text></g><path d="M244,237L248.333,237C252.667,237,261.333,237,269.333,226.667C277.333,216.333,284.667,195.667,288.333,185.333L292,175" fill="none" stroke="#4D4D4D" stroke-width="1.35" stroke-linecap="round" marker-end="url(#arrowBlue)" opacity="0.72"/><g><rect x="304" y="132" width="124" height="70" rx="4" fill="#ffffff" stroke="#BDBDBD" stroke-width="1.05"/><text x="366" y="149" class="cond-mini" text-anchor="middle" fill="#4D4D4D" textLength="64" lengthAdjust="spacingAndGlyphs"><tspan>S_i5(f)</tspan></text><line x1="317" y1="188" x2="415" y2="188" stroke="#4D4D4D" stroke-width="0.8" opacity="0.65"/><path d="M317,173.15L317.495,172.918C317.99,172.686,318.98,172.223,319.97,171.769C320.96,171.314,321.949,170.869,322.939,170.442C323.929,170.015,324.919,169.606,325.909,169.224C326.899,168.841,327.889,168.485,328.879,168.162C329.869,167.839,330.859,167.549,331.848,167.299C332.838,167.048,333.828,166.837,334.818,166.669C335.808,166.501,336.798,166.376,337.788,166.298C338.778,166.219,339.768,166.186,340.758,166.199C341.747,166.213,342.737,166.273,343.727,166.378C344.717,166.484,345.707,166.634,346.697,166.827C347.687,167.02,348.677,167.255,349.667,167.528C350.657,167.801,351.646,168.111,352.636,168.453C353.626,168.795,354.616,169.168,355.606,169.565C356.596,169.963,357.586,170.384,358.576,170.821C359.566,171.257,360.556,171.71,361.545,172.169C362.535,172.628,363.525,173.093,364.515,173.556C365.505,174.019,366.495,174.479,367.485,174.927C368.475,175.375,369.465,175.811,370.455,176.227C371.444,176.643,372.434,177.038,373.424,177.405C374.414,177.771,375.404,178.109,376.394,178.412C377.384,178.715,378.374,178.983,379.364,179.21C380.354,179.438,381.343,179.624,382.333,179.767C383.323,179.909,384.313,180.008,385.303,180.06C386.293,180.112,387.283,180.117,388.273,180.077C389.263,180.036,390.253,179.949,391.242,179.818C392.232,179.686,393.222,179.51,394.212,179.293C395.202,179.076,396.192,178.818,397.182,178.523C398.172,178.229,399.162,177.899,400.152,177.54C401.141,177.18,402.131,176.791,403.121,176.381C404.111,175.97,405.101,175.538,406.091,175.093C407.081,174.648,408.071,174.19,409.061,173.728C410.051,173.266,411.04,172.8,412.03,172.34C413.02,171.879,414.01,171.424,414.505,171.197L415,170.969" fill="none" stroke="#D55E00" stroke-width="1.15" opacity="0.95"/><path d="M317,171.591L317.495,171.406C317.99,171.22,318.98,170.849,319.97,170.51C320.96,170.171,321.949,169.864,322.939,169.594C323.929,169.324,324.919,169.092,325.909,168.903C326.899,168.714,327.889,168.567,328.879,168.465C329.869,168.364,330.859,168.308,331.848,168.298C332.838,168.288,333.828,168.325,334.818,168.408C335.808,168.49,336.798,168.619,337.788,168.79C338.778,168.962,339.768,169.177,340.758,169.431C341.747,169.684,342.737,169.977,343.727,170.303C344.717,170.629,345.707,170.987,346.697,171.372C347.687,171.757,348.677,172.168,349.667,172.596C350.657,173.025,351.646,173.471,352.636,173.926C353.626,174.381,354.616,174.845,355.606,175.308C356.596,175.772,357.586,176.235,358.576,176.689C359.566,177.142,360.556,177.586,361.545,178.012C362.535,178.437,363.525,178.844,364.515,179.224C365.505,179.605,366.495,179.959,367.485,180.279C368.475,180.599,369.465,180.885,370.455,181.133C371.444,181.38,372.434,181.588,373.424,181.752C374.414,181.916,375.404,182.037,376.394,182.112C377.384,182.187,378.374,182.216,379.364,182.199C380.354,182.181,381.343,182.117,382.333,182.008C383.323,181.899,384.313,181.745,385.303,181.548C386.293,181.352,387.283,181.113,388.273,180.837C389.263,180.561,390.253,180.248,391.242,179.904C392.232,179.559,393.222,179.184,394.212,178.784C395.202,178.385,396.192,177.962,397.182,177.524C398.172,177.086,399.162,176.633,400.152,176.173C401.141,175.714,402.131,175.248,403.121,174.786C404.111,174.323,405.101,173.864,406.091,173.417C407.081,172.969,408.071,172.535,409.061,172.121C410.051,171.707,411.04,171.314,412.03,170.949C413.02,170.585,414.01,170.25,414.505,170.082L415,169.914" fill="none" stroke="#0072B2" stroke-width="1.15" opacity="0.62"/><path d="M317,171.112L317.495,171.027C317.99,170.943,318.98,170.774,319.97,170.65C320.96,170.526,321.949,170.447,322.939,170.414C323.929,170.381,324.919,170.395,325.909,170.454C326.899,170.514,327.889,170.62,328.879,170.77C329.869,170.92,330.859,171.114,331.848,171.348C332.838,171.582,333.828,171.856,334.818,172.165C335.808,172.474,336.798,172.817,337.788,173.189C338.778,173.56,339.768,173.959,340.758,174.378C341.747,174.797,342.737,175.236,343.727,175.686C344.717,176.136,345.707,176.598,346.697,177.061C347.687,177.524,348.677,177.989,349.667,178.447C350.657,178.905,351.646,179.355,352.636,179.789C353.626,180.223,354.616,180.641,355.606,181.034C356.596,181.427,357.586,181.796,358.576,182.132C359.566,182.469,360.556,182.773,361.545,183.04C362.535,183.306,363.525,183.535,364.515,183.721C365.505,183.906,366.495,184.05,367.485,184.147C368.475,184.245,369.465,184.297,370.455,184.303C371.444,184.309,372.434,184.268,373.424,184.181C374.414,184.095,375.404,183.963,376.394,183.788C377.384,183.612,378.374,183.394,379.364,183.137C380.354,182.88,381.343,182.584,382.333,182.256C383.323,181.927,384.313,181.566,385.303,181.179C386.293,180.792,387.283,180.38,388.273,179.95C389.263,179.52,390.253,179.072,391.242,178.617C392.232,178.161,393.222,177.697,394.212,177.233C395.202,176.77,396.192,176.307,397.182,175.854C398.172,175.401,399.162,174.959,400.152,174.535C401.141,174.111,402.131,173.706,403.121,173.328C404.111,172.95,405.101,172.598,406.091,172.281C407.081,171.964,408.071,171.68,409.061,171.436C410.051,171.193,411.04,170.988,412.03,170.828C413.02,170.667,414.01,170.55,414.505,170.491L415,170.433" fill="none" stroke="#0072B2" stroke-width="1.15" opacity="0.62"/><path d="M317,172.472L317.495,172.513C317.99,172.555,318.98,172.638,319.97,172.766C320.96,172.894,321.949,173.066,322.939,173.28C323.929,173.493,324.919,173.748,325.909,174.04C326.899,174.331,327.889,174.658,328.879,175.015C329.869,175.372,330.859,175.759,331.848,176.168C332.838,176.576,333.828,177.007,334.818,177.451C335.808,177.895,336.798,178.352,337.788,178.814C338.778,179.276,339.768,179.741,340.758,180.202C341.747,180.663,342.737,181.119,343.727,181.561C344.717,182.002,345.707,182.43,346.697,182.835C347.687,183.24,348.677,183.622,349.667,183.974C350.657,184.326,351.646,184.648,352.636,184.933C353.626,185.218,354.616,185.467,355.606,185.673C356.596,185.88,357.586,186.045,358.576,186.165C359.566,186.286,360.556,186.361,361.545,186.39C362.535,186.419,363.525,186.401,364.515,186.338C365.505,186.274,366.495,186.165,367.485,186.011C368.475,185.857,369.465,185.66,370.455,185.423C371.444,185.185,372.434,184.908,373.424,184.596C374.414,184.284,375.404,183.938,376.394,183.564C377.384,183.191,378.374,182.79,379.364,182.369C380.354,181.948,381.343,181.508,382.333,181.057C383.323,180.606,384.313,180.144,385.303,179.681C386.293,179.217,387.283,178.753,388.273,178.295C389.263,177.838,390.253,177.389,391.242,176.956C392.232,176.523,393.222,176.107,394.212,175.716C395.202,175.325,396.192,174.959,397.182,174.625C398.172,174.292,399.162,173.99,400.152,173.727C401.141,173.463,402.131,173.238,403.121,173.056C404.111,172.874,405.101,172.735,406.091,172.641C407.081,172.547,408.071,172.498,409.061,172.497C410.051,172.495,411.04,172.539,412.03,172.63C413.02,172.72,414.01,172.856,414.505,172.924L415,172.992" fill="none" stroke="#0072B2" stroke-width="1.15" opacity="0.62"/></g><path d="M366,203L366,205C366,207,366,211,366,216C366,221,366,227,366,230L366,233" fill="none" stroke="#4D4D4D" stroke-width="1.25" stroke-linecap="round" marker-end="url(#arrowBlue)" opacity="0.7"/><g><rect x="304" y="234" width="124" height="60" rx="4" fill="#ffffff" stroke="#BDBDBD" stroke-width="1.05"/><text x="366" y="252" class="cond-mini" text-anchor="middle" fill="#0072B2" textLength="104" lengthAdjust="spacingAndGlyphs"><tspan>x_RF,</tspan><tspan dx="0.32em">180-D</tspan></text><rect x="317" y="263" width="22" height="16" fill="#0072B2" opacity="0.13" stroke="#0072B2" stroke-width="0.9"/><line x1="324" y1="263" x2="324" y2="279" stroke="#0072B2" stroke-width="0.65" opacity="0.35"/><line x1="331" y1="263" x2="331" y2="279" stroke="#0072B2" stroke-width="0.65" opacity="0.35"/><rect x="339" y="263" width="18" height="16" fill="#D55E00" opacity="0.13" stroke="#D55E00" stroke-width="0.9"/><line x1="346" y1="263" x2="346" y2="279" stroke="#D55E00" stroke-width="0.65" opacity="0.35"/><rect x="357" y="263" width="22" height="16" fill="#0072B2" opacity="0.13" stroke="#0072B2" stroke-width="0.9"/><line x1="364" y1="263" x2="364" y2="279" stroke="#0072B2" stroke-width="0.65" opacity="0.35"/><line x1="371" y1="263" x2="371" y2="279" stroke="#0072B2" stroke-width="0.65" opacity="0.35"/><rect x="379" y="263" width="18" height="16" fill="#D55E00" opacity="0.13" stroke="#D55E00" stroke-width="0.9"/><line x1="386" y1="263" x2="386" y2="279" stroke="#D55E00" stroke-width="0.65" opacity="0.35"/><rect x="397" y="263" width="20" height="16" fill="#0072B2" opacity="0.13" stroke="#0072B2" stroke-width="0.9"/><line x1="404" y1="263" x2="404" y2="279" stroke="#0072B2" stroke-width="0.65" opacity="0.35"/></g><text x="246" y="381" class="stage" text-anchor="middle"><tspan>RF</tspan><tspan dx="0.32em">condition</tspan><tspan dx="0.32em">c</tspan></text><text x="246" y="412" class="tiny" text-anchor="middle"><tspan>Tx/Rx</tspan><tspan dx="0.32em">-&gt;</tspan><tspan dx="0.32em">S-parameters</tspan><tspan dx="0.32em">-&gt;</tspan><tspan dx="0.32em">x_RF</tspan></text></g><g id="base"><polygon points="567,158 812,158 720,220 475,220" fill="rgba(251,252,252,0.52)" stroke="#778086" stroke-width="2.2" opacity="1" stroke-dasharray=""/><polygon points="720,220 812,158 812,308 720,370" fill="rgba(245,248,250,0.48)" stroke="#778086" stroke-width="2.2" opacity="1" stroke-dasharray=""/><polygon points="475,220 720,220 720,370 475,370" fill="rgba(255,255,255,0.38)" stroke="#778086" stroke-width="2.2" opacity="1" stroke-dasharray=""/><line x1="475" y1="220" x2="567" y2="158" stroke="#778086" stroke-width="2.2" opacity="1" stroke-dasharray=""/><line x1="720" y1="370" x2="812" y2="308" stroke="#778086" stroke-width="2.2" opacity="1" stroke-dasharray=""/><circle cx="631.6" cy="254.1" r="5.3" fill="#9aa3a8" opacity="0.42"/><circle cx="593.9" cy="197.3" r="5.3" fill="#9aa3a8" opacity="0.42"/><circle cx="693.6" cy="347.9" r="5.3" fill="#9aa3a8" opacity="0.42"/><circle cx="700.7" cy="289.1" r="5.3" fill="#9aa3a8" opacity="0.42"/><circle cx="704.5" cy="328.2" r="5.3" fill="#9aa3a8" opacity="0.42"/><circle cx="656.8" cy="252.5" r="5.3" fill="#9aa3a8" opacity="0.42"/><circle cx="565.6" cy="258.1" r="5.3" fill="#9aa3a8" opacity="0.42"/><circle cx="682.9" cy="246.4" r="5.3" fill="#9aa3a8" opacity="0.42"/><circle cx="747.6" cy="202.3" r="5.3" fill="#9aa3a8" opacity="0.42"/><circle cx="561.0" cy="285.5" r="5.3" fill="#9aa3a8" opacity="0.42"/><circle cx="613.5" cy="259.9" r="5.3" fill="#9aa3a8" opacity="0.42"/><circle cx="624.8" cy="170.5" r="5.3" fill="#9aa3a8" opacity="0.42"/><circle cx="779.6" cy="297.9" r="5.3" fill="#9aa3a8" opacity="0.42"/><circle cx="621.0" cy="217.2" r="5.3" fill="#9aa3a8" opacity="0.42"/><circle cx="759.4" cy="215.7" r="5.3" fill="#9aa3a8" opacity="0.42"/><circle cx="712.5" cy="300.9" r="5.3" fill="#9aa3a8" opacity="0.42"/><circle cx="552.7" cy="248.4" r="5.3" fill="#9aa3a8" opacity="0.42"/><circle cx="679.1" cy="210.2" r="5.3" fill="#9aa3a8" opacity="0.42"/><circle cx="699.3" cy="318.0" r="5.3" fill="#9aa3a8" opacity="0.42"/><circle cx="767.2" cy="206.3" r="5.3" fill="#9aa3a8" opacity="0.42"/><circle cx="525.2" cy="287.3" r="5.3" fill="#9aa3a8" opacity="0.42"/><circle cx="643.6" cy="238.0" r="5.3" fill="#9aa3a8" opacity="0.42"/><circle cx="526.8" cy="265.6" r="5.3" fill="#9aa3a8" opacity="0.42"/><circle cx="730.7" cy="219.9" r="5.3" fill="#9aa3a8" opacity="0.42"/><circle cx="689.9" cy="193.4" r="5.3" fill="#9aa3a8" opacity="0.42"/><circle cx="767.6" cy="247.3" r="5.3" fill="#9aa3a8" opacity="0.42"/><circle cx="582.8" cy="333.5" r="5.3" fill="#9aa3a8" opacity="0.42"/><circle cx="766.1" cy="283.2" r="5.3" fill="#9aa3a8" opacity="0.42"/><circle cx="596.5" cy="290.4" r="5.3" fill="#9aa3a8" opacity="0.42"/><circle cx="687.8" cy="249.0" r="5.3" fill="#9aa3a8" opacity="0.42"/><circle cx="603.5" cy="227.0" r="5.3" fill="#9aa3a8" opacity="0.42"/><circle cx="724.6" cy="274.5" r="5.3" fill="#9aa3a8" opacity="0.42"/><circle cx="648.9" cy="308.4" r="5.3" fill="#9aa3a8" opacity="0.42"/><circle cx="739.7" cy="205.2" r="5.3" fill="#9aa3a8" opacity="0.42"/><circle cx="743.3" cy="311.6" r="5.3" fill="#9aa3a8" opacity="0.42"/><circle cx="684.2" cy="290.0" r="5.3" fill="#9aa3a8" opacity="0.42"/><circle cx="712.3" cy="296.9" r="5.3" fill="#9aa3a8" opacity="0.42"/><circle cx="571.1" cy="233.5" r="5.3" fill="#9aa3a8" opacity="0.42"/><circle cx="604.8" cy="262.2" r="5.3" fill="#9aa3a8" opacity="0.42"/><circle cx="609.7" cy="287.6" r="5.3" fill="#9aa3a8" opacity="0.42"/><circle cx="719.9" cy="302.6" r="5.3" fill="#9aa3a8" opacity="0.42"/><circle cx="668.7" cy="233.4" r="5.3" fill="#9aa3a8" opacity="0.42"/><circle cx="738.6" cy="332.9" r="5.3" fill="#9aa3a8" opacity="0.42"/><circle cx="580.7" cy="229.8" r="5.3" fill="#9aa3a8" opacity="0.42"/><circle cx="614.0" cy="306.3" r="5.3" fill="#9aa3a8" opacity="0.42"/><circle cx="548.3" cy="260.7" r="5.3" fill="#9aa3a8" opacity="0.42"/><circle cx="647.3" cy="301.9" r="5.3" fill="#9aa3a8" opacity="0.42"/><circle cx="662.8" cy="177.8" r="5.3" fill="#9aa3a8" opacity="0.42"/><circle cx="532.0" cy="269.4" r="5.3" fill="#9aa3a8" opacity="0.42"/><circle cx="555.3" cy="270.5" r="5.3" fill="#9aa3a8" opacity="0.42"/><circle cx="679.8" cy="307.6" r="5.3" fill="#9aa3a8" opacity="0.42"/><circle cx="534.5" cy="303.6" r="5.3" fill="#9aa3a8" opacity="0.42"/><circle cx="698.8" cy="223.2" r="5.3" fill="#9aa3a8" opacity="0.42"/><circle cx="522.4" cy="226.8" r="5.3" fill="#9aa3a8" opacity="0.42"/><circle cx="641.2" cy="320.5" r="5.3" fill="#9aa3a8" opacity="0.42"/><circle cx="567.7" cy="272.6" r="5.3" fill="#9aa3a8" opacity="0.42"/><circle cx="512.4" cy="244.5" r="5.3" fill="#9aa3a8" opacity="0.42"/><circle cx="651.0" cy="329.0" r="5.3" fill="#9aa3a8" opacity="0.42"/><circle cx="744.6" cy="271.3" r="5.3" fill="#9aa3a8" opacity="0.42"/><circle cx="687.5" cy="234.9" r="5.3" fill="#9aa3a8" opacity="0.42"/><circle cx="769.6" cy="310.9" r="5.3" fill="#9aa3a8" opacity="0.42"/><circle cx="699.6" cy="287.4" r="5.3" fill="#9aa3a8" opacity="0.42"/><circle cx="621.7" cy="228.0" r="5.3" fill="#9aa3a8" opacity="0.42"/><circle cx="748.1" cy="190.4" r="5.3" fill="#9aa3a8" opacity="0.42"/><circle cx="696.4" cy="206.4" r="5.3" fill="#9aa3a8" opacity="0.42"/><circle cx="623.1" cy="312.6" r="5.3" fill="#9aa3a8" opacity="0.42"/><circle cx="596.6" cy="294.9" r="5.3" fill="#9aa3a8" opacity="0.42"/><circle cx="512.6" cy="261.1" r="5.3" fill="#9aa3a8" opacity="0.42"/><circle cx="756.7" cy="219.6" r="5.3" fill="#9aa3a8" opacity="0.42"/><circle cx="659.1" cy="208.4" r="5.3" fill="#9aa3a8" opacity="0.42"/><circle cx="588.0" cy="258.7" r="5.3" fill="#9aa3a8" opacity="0.42"/><circle cx="750.3" cy="299.5" r="5.3" fill="#9aa3a8" opacity="0.42"/><circle cx="560.3" cy="266.2" r="5.3" fill="#9aa3a8" opacity="0.42"/><circle cx="686.5" cy="201.9" r="5.3" fill="#9aa3a8" opacity="0.42"/><circle cx="763.2" cy="186.6" r="5.3" fill="#9aa3a8" opacity="0.42"/><circle cx="676.8" cy="322.2" r="5.3" fill="#9aa3a8" opacity="0.42"/><circle cx="626.8" cy="205.2" r="5.3" fill="#9aa3a8" opacity="0.42"/><circle cx="570.1" cy="299.0" r="5.3" fill="#9aa3a8" opacity="0.42"/><circle cx="617.0" cy="321.1" r="5.3" fill="#9aa3a8" opacity="0.42"/><circle cx="710.1" cy="323.9" r="5.3" fill="#9aa3a8" opacity="0.42"/><circle cx="614.1" cy="295.9" r="5.3" fill="#9aa3a8" opacity="0.42"/><circle cx="749.9" cy="283.2" r="5.3" fill="#9aa3a8" opacity="0.42"/><circle cx="641.4" cy="265.8" r="5.3" fill="#9aa3a8" opacity="0.42"/><circle cx="604.8" cy="274.3" r="5.3" fill="#9aa3a8" opacity="0.42"/><circle cx="612.2" cy="252.0" r="5.3" fill="#9aa3a8" opacity="0.42"/><circle cx="610.3" cy="222.2" r="5.3" fill="#9aa3a8" opacity="0.42"/><circle cx="607.6" cy="243.2" r="5.3" fill="#9aa3a8" opacity="0.42"/><circle cx="635.8" cy="340.8" r="5.3" fill="#9aa3a8" opacity="0.42"/><circle cx="729.7" cy="248.4" r="5.3" fill="#9aa3a8" opacity="0.42"/><circle cx="731.9" cy="318.0" r="5.3" fill="#9aa3a8" opacity="0.42"/><circle cx="730.1" cy="310.7" r="5.3" fill="#9aa3a8" opacity="0.42"/><circle cx="598.3" cy="250.1" r="5.3" fill="#9aa3a8" opacity="0.42"/><text x="610" y="423" class="stage" text-anchor="middle"><tspan>bounded</tspan><tspan dx="0.32em">base</tspan></text><text x="610" y="452" class="small" text-anchor="middle"><tspan>uniform</tspan><tspan dx="0.32em">in</tspan><tspan dx="0.32em">volume</tspan></text></g><path d="M714,236L736.667,219.667C759.333,203.333,804.667,170.667,859,153.333C913.333,136,976.667,134,1070,151.167C1163.333,168.333,1286.667,204.667,1348.333,222.833L1410,241 L 1410,352L1348.333,348.333C1286.667,344.667,1163.333,337.333,1070,333.667C976.667,330,913.333,330,859,334.667C804.667,339.333,759.333,348.667,736.667,353.333L714,358 Z" fill="url(#ribbon)" stroke="none"/><g id="flow"><path d="M534.356,226.843L579.502,219.17C624.648,211.497,714.939,196.151,804.701,194.213C894.463,192.276,983.696,203.747,1082.594,225.748C1181.491,247.748,1290.054,280.278,1344.336,296.543L1398.617,312.809" fill="none" stroke="url(#flowStroke)" stroke-width="4.248464158410206" opacity="0.48" stroke-linecap="round"/><path d="M636.815,170.495L663.001,175.951C689.187,181.408,741.559,192.321,821.132,198.466C900.704,204.612,1007.477,205.99,1111.72,214.629C1215.962,223.268,1317.673,239.167,1368.529,247.117L1419.385,255.067" fill="none" stroke="url(#flowStroke)" stroke-width="3.7313397714402528" opacity="0.48" stroke-linecap="round"/><path d="M543.962,269.381L592.845,264.626C641.728,259.87,739.494,250.358,824.495,237.828C909.497,225.299,981.734,209.751,1081.479,214.895C1181.224,220.038,1308.476,245.872,1372.102,258.789L1435.728,271.706" fill="none" stroke="url(#flowStroke)" stroke-width="4.240056001441554" opacity="0.48" stroke-linecap="round"/><path d="M698.474,201.918L725.431,198.292C752.388,194.665,806.303,187.412,872.031,189.667C937.759,191.921,1015.3,203.683,1113.002,227.478C1210.703,251.274,1328.565,287.105,1387.495,305.02L1446.426,322.935" fill="none" stroke="url(#flowStroke)" stroke-width="3.8370244845282286" opacity="0.48" stroke-linecap="round"/><path d="M643.572,254.105L680.195,244.259C716.817,234.414,790.061,214.722,856.375,207.411C922.69,200.1,982.073,205.17,1074.405,217.262C1166.737,229.354,1292.017,248.469,1354.657,258.026L1417.297,267.584" fill="none" stroke="url(#flowStroke)" stroke-width="4.656468580523506" opacity="0.48" stroke-linecap="round"/><path d="M691.797,307.551L712.475,287.734C733.154,267.916,774.512,228.281,835.511,212.435C896.51,196.589,977.151,204.531,1072.329,219.976C1167.507,235.421,1277.222,258.369,1332.08,269.842L1386.938,281.316" fill="none" stroke="url(#flowStroke)" stroke-width="3.0462229182478042" opacity="0.48" stroke-linecap="round"/><path d="M655.595,238.021L682.299,229.099C709.003,220.176,762.411,202.331,828.089,198.316C893.766,194.301,971.713,204.115,1092.873,216.871C1214.032,229.626,1378.404,245.322,1460.589,253.17L1542.775,261.018" fill="none" stroke="url(#flowStroke)" stroke-width="3.7465477113146335" opacity="0.48" stroke-linecap="round"/><path d="M722.088,323.903L734.948,299.523C747.809,275.143,773.531,226.382,828.628,208.454C883.726,190.525,968.2,203.429,1092.621,218.681C1217.041,233.934,1381.408,251.535,1463.591,260.335L1545.774,269.136" fill="none" stroke="url(#flowStroke)" stroke-width="3.261988117871806" opacity="0.48" stroke-linecap="round"/><path d="M625.516,259.912L658.522,245.501C691.528,231.091,757.54,202.269,832.5,195.249C907.46,188.229,991.368,203.011,1101.52,217.863C1211.672,232.715,1348.069,247.636,1416.267,255.097L1484.465,262.557" fill="none" stroke="url(#flowStroke)" stroke-width="4.429379230225459" opacity="0.48" stroke-linecap="round"/><path d="M638.754,205.227L669.296,211.213C699.837,217.199,760.919,229.171,832.852,227.316C904.785,225.462,987.568,209.781,1113.01,215.548C1238.452,221.315,1406.554,248.53,1490.605,262.137L1574.656,275.745" fill="none" stroke="url(#flowStroke)" stroke-width="3.19310509278439" opacity="0.48" stroke-linecap="round"/><path d="M625.969,306.289L658.603,287.078C691.237,267.866,756.506,229.444,837.619,213.669C918.732,197.895,1015.69,204.769,1110.331,216.933C1204.971,229.098,1297.294,246.553,1343.455,255.28L1389.617,264.008" fill="none" stroke="url(#flowStroke)" stroke-width="4.1801654592622075" opacity="0.48" stroke-linecap="round"/><path d="M629.029,321.124L660.087,299.68C691.144,278.237,753.259,235.349,821.407,217.018C889.555,198.687,963.737,204.913,1055.841,223.652C1147.945,242.39,1257.972,273.642,1312.986,289.268L1367.999,304.894" fill="none" stroke="url(#flowStroke)" stroke-width="4.134986812574789" opacity="0.48" stroke-linecap="round"/><path d="M543.962,269.381L590.498,258.079C637.033,246.777,730.105,224.172,819.136,213.934C908.166,203.696,993.155,205.823,1097.996,226.614C1202.838,247.405,1327.531,286.858,1389.878,306.584L1452.225,326.311" fill="none" stroke="url(#flowStroke)" stroke-width="4.239734483370557" opacity="0.48" stroke-linecap="round"/><path d="M625.969,306.289L666.084,285.086C706.199,263.883,786.429,221.477,860.883,206.4C935.336,191.323,1004.013,203.574,1116.602,218.294C1229.19,233.014,1385.691,250.204,1463.941,258.799L1542.191,267.393" fill="none" stroke="url(#flowStroke)" stroke-width="4.122640515631065" opacity="0.48" stroke-linecap="round"/><path d="M750.578,332.906L757.69,309.849C764.802,286.792,779.026,240.677,832.665,220.26C886.303,199.843,979.357,205.123,1098.665,223.178C1217.974,241.234,1363.537,272.064,1436.319,287.48L1509.101,302.895" fill="none" stroke="url(#flowStroke)" stroke-width="3.3570572402793912" opacity="0.48" stroke-linecap="round"/><path d="M741.742,248.449L751.358,240.513C760.974,232.577,780.207,216.705,837.904,209.998C895.601,203.291,991.762,205.75,1104.06,220.278C1216.357,234.807,1344.79,261.405,1409.007,274.704L1473.223,288.003" fill="none" stroke="url(#flowStroke)" stroke-width="4.390079330233857" opacity="0.48" stroke-linecap="round"/><path d="M572.325,266.19L619.245,257.703C666.165,249.215,760.004,232.241,842.829,221.735C925.654,211.23,997.465,207.193,1103.283,224.071C1209.101,240.949,1348.927,278.741,1418.84,297.637L1488.753,316.533" fill="none" stroke="url(#flowStroke)" stroke-width="4.724147422844544" opacity="0.48" stroke-linecap="round"/><path d="M524.381,244.488L575.551,234.704C626.722,224.919,729.064,205.35,822.847,200.181C916.631,195.013,1001.856,204.245,1105.605,225.592C1209.354,246.939,1331.625,280.401,1392.761,297.133L1453.897,313.864" fill="none" stroke="url(#flowStroke)" stroke-width="3.9205542081501337" opacity="0.48" stroke-linecap="round"/><path d="M647.845,340.802L672.986,321.344C698.128,301.886,748.41,262.971,817.11,239.518C885.811,216.064,972.928,208.072,1097.048,221.542C1221.169,235.012,1382.292,269.944,1462.854,287.41L1543.415,304.876" fill="none" stroke="url(#flowStroke)" stroke-width="4.012719193892553" opacity="0.48" stroke-linecap="round"/><path d="M538.828,265.59L586.277,258.773C633.726,251.956,728.623,238.323,823.043,227.368C917.463,216.413,1011.404,208.136,1113.438,215.972C1215.473,223.808,1325.601,247.757,1380.665,259.732L1435.728,271.706" fill="none" stroke="url(#flowStroke)" stroke-width="3.32198117072694" opacity="0.48" stroke-linecap="round"/><path d="M629.029,321.124L658.298,302.396C687.568,283.669,746.106,246.213,824.923,226.932C903.74,207.65,1002.836,206.542,1121.837,217.573C1240.837,228.603,1379.743,251.77,1449.196,263.354L1518.648,274.938" fill="none" stroke="url(#flowStroke)" stroke-width="4.271977713564411" opacity="0.48" stroke-linecap="round"/><path d="M741.742,248.449L760.494,242.709C779.246,236.968,816.749,225.488,869.317,218.012C921.885,210.537,989.518,207.067,1088.778,213.637C1188.038,220.206,1318.925,236.815,1384.368,245.12L1449.812,253.424" fill="none" stroke="url(#flowStroke)" stroke-width="3.711938867485151" opacity="0.48" stroke-linecap="round"/><path d="M688.802,322.178L714.39,298.286C739.978,274.393,791.155,226.609,852.918,208.898C914.68,191.187,987.028,203.549,1096.491,221.838C1205.953,240.126,1352.53,264.341,1425.819,276.449L1499.107,288.556" fill="none" stroke="url(#flowStroke)" stroke-width="3.0969174791593104" opacity="0.48" stroke-linecap="round"/><path d="M615.505,227.042L651.692,218.075C687.879,209.107,760.254,191.173,839.084,189.644C917.915,188.115,1003.201,202.991,1123.772,223.475C1244.343,243.958,1400.199,270.051,1478.127,283.097L1556.055,296.143" fill="none" stroke="url(#flowStroke)" stroke-width="4.746611447213217" opacity="0.48" stroke-linecap="round"/><path d="M624.186,252L651.833,244.45C679.479,236.901,734.771,221.803,805.243,214.162C875.714,206.521,961.365,206.337,1085.069,219.69C1208.772,233.044,1370.528,259.934,1451.407,273.379L1532.285,286.824" fill="none" stroke="url(#flowStroke)" stroke-width="4.1265034774783995" opacity="0.48" stroke-linecap="round"/><path d="M633.709,228.018L662.072,227.912C690.434,227.807,747.158,227.596,816.993,222.745C886.827,217.895,969.771,208.405,1082.454,217.695C1195.138,226.985,1337.56,255.054,1408.771,269.089L1479.982,283.124" fill="none" stroke="url(#flowStroke)" stroke-width="4.578051741560921" opacity="0.48" stroke-linecap="round"/><path d="M711.644,287.365L725.478,269.844C739.313,252.323,766.983,217.281,822.215,205.173C877.447,193.065,960.241,203.891,1060.902,225.652C1161.563,247.414,1280.09,280.111,1339.354,296.46L1398.617,312.809" fill="none" stroke="url(#flowStroke)" stroke-width="4.58111014966853" opacity="0.48" stroke-linecap="round"/><path d="M761.916,283.247L771.833,273.625C781.751,264.003,801.586,244.759,859.375,230.813C917.163,216.867,1012.905,208.218,1124.464,214.403C1236.024,220.587,1363.401,241.604,1427.09,252.112L1490.778,262.621" fill="none" stroke="url(#flowStroke)" stroke-width="3.1741397611331195" opacity="0.48" stroke-linecap="round"/><path d="M546.513,303.628L589.253,290.097C631.993,276.567,717.474,249.506,799.999,232.342C882.525,215.178,962.096,207.911,1067.404,216.538C1172.712,225.165,1303.758,249.685,1369.28,261.945L1434.803,274.205" fill="none" stroke="url(#flowStroke)" stroke-width="4.598593168566003" opacity="0.48" stroke-linecap="round"/><path d="M577.551,258.068L614.437,255.571C651.323,253.073,725.095,248.079,805.443,237.304C885.791,226.529,972.714,209.975,1091.087,219.944C1209.459,229.912,1359.28,266.403,1434.19,284.649L1509.101,302.895" fill="none" stroke="url(#flowStroke)" stroke-width="3.685611504083499" opacity="0.48" stroke-linecap="round"/><path d="M647.845,340.802L681.181,314.253C714.517,287.704,781.19,234.606,848.81,213.634C916.43,192.662,984.998,203.817,1097.935,223.284C1210.872,242.75,1368.177,270.528,1446.83,284.416L1525.483,298.305" fill="none" stroke="url(#flowStroke)" stroke-width="3.5783690285403282" opacity="0.48" stroke-linecap="round"/><path d="M741.742,248.449L760.774,240.387C779.806,232.325,817.87,216.2,879.656,209.538C941.442,202.875,1026.95,205.674,1130.116,216.133C1233.283,226.592,1354.107,244.711,1414.519,253.77L1474.931,262.829" fill="none" stroke="url(#flowStroke)" stroke-width="3.394533077208325" opacity="0.48" stroke-linecap="round"/><path d="M537.173,287.332L583.061,273.168C628.948,259.005,720.724,230.677,811.67,217.401C902.616,204.125,992.734,205.902,1110.425,218C1228.117,230.098,1373.383,252.518,1446.015,263.728L1518.648,274.938" fill="none" stroke="url(#flowStroke)" stroke-width="3.192877447837964" opacity="0.48" stroke-linecap="round"/><path d="M743.853,318.033L761.858,294.29C779.862,270.546,815.871,223.058,871.006,206.228C926.141,189.397,1000.402,203.224,1088.097,220.242C1175.792,237.26,1276.921,257.47,1327.486,267.575L1378.051,277.68" fill="none" stroke="url(#flowStroke)" stroke-width="4.02859512954019" opacity="0.48" stroke-linecap="round"/><path d="M744,296L765,276.333C786,256.667,828,217.333,879.833,197.333C931.667,177.333,993.333,176.667,1078.333,195.667C1163.333,214.667,1271.667,253.333,1325.833,272.667L1380,292" fill="none" stroke="#1b6b2a" stroke-width="5.8" opacity="0.9" stroke-linecap="round" marker-end="url(#arrowGreen)"/><text x="990" y="145" class="stage" text-anchor="middle" fill="#1b6b2a"><tspan>learned</tspan><tspan dx="0.32em">flow</tspan></text></g><path d="M468,215L500,215" fill="none" stroke="#0072B2" stroke-width="2.6" stroke-dasharray="6 7" opacity="0.72" marker-end="url(#arrowBlue)"/><g id="posterior"><polygon points="1382,152 1682,152 1580,214 1280,214" fill="rgba(252,253,251,0.50)" stroke="#75807a" stroke-width="2.2" opacity="0.54" stroke-dasharray="8 7"/><polygon points="1580,214 1682,152 1682,312 1580,374" fill="rgba(237,246,239,0.38)" stroke="#75807a" stroke-width="2.2" opacity="0.54" stroke-dasharray="8 7"/><polygon points="1280,214 1580,214 1580,374 1280,374" fill="rgba(255,255,255,0.30)" stroke="#75807a" stroke-width="2.2" opacity="0.54" stroke-dasharray="8 7"/><line x1="1280" y1="214" x2="1382" y2="152" stroke="#75807a" stroke-width="2.2" opacity="0.54" stroke-dasharray="8 7"/><line x1="1580" y1="374" x2="1682" y2="312" stroke="#75807a" stroke-width="2.2" opacity="0.54" stroke-dasharray="8 7"/><ellipse cx="1465" cy="292" rx="250" ry="92" fill="url(#posteriorGlow)" stroke="none"/><ellipse cx="1465" cy="292" rx="92" ry="28" fill="none" stroke="#1b6b2a" stroke-width="3.2" opacity="0.96" transform="rotate(-3 1465 292)"/><ellipse cx="1465" cy="292" rx="143" ry="43" fill="none" stroke="#1b6b2a" stroke-width="2.6" opacity="0.72" transform="rotate(-3 1465 292)"/><ellipse cx="1465" cy="292" rx="185" ry="58" fill="none" stroke="#1b6b2a" stroke-width="2.2" opacity="0.48" transform="rotate(-3 1465 292)"/><circle cx="1555.4" cy="304.9" r="5.2" fill="#1b6b2a" opacity="0.46"/><circle cx="1391.2" cy="314.1" r="5.2" fill="#1b6b2a" opacity="0.46"/><circle cx="1525.2" cy="301.7" r="5.2" fill="#1b6b2a" opacity="0.46"/><circle cx="1433.2" cy="302.7" r="5.2" fill="#1b6b2a" opacity="0.46"/><circle cx="1568.1" cy="296.1" r="5.2" fill="#1b6b2a" opacity="0.46"/><circle cx="1340.5" cy="306.0" r="5.2" fill="#1b6b2a" opacity="0.46"/><circle cx="1409.9" cy="320.5" r="5.2" fill="#1b6b2a" opacity="0.46"/><circle cx="1572.3" cy="304.6" r="5.2" fill="#1b6b2a" opacity="0.46"/><circle cx="1418.9" cy="260.6" r="5.2" fill="#1b6b2a" opacity="0.46"/><circle cx="1486.9" cy="262.8" r="5.2" fill="#1b6b2a" opacity="0.46"/><circle cx="1390.1" cy="277.7" r="5.2" fill="#1b6b2a" opacity="0.46"/><circle cx="1557.8" cy="269.1" r="5.2" fill="#1b6b2a" opacity="0.46"/><circle cx="1379.3" cy="293.9" r="5.2" fill="#1b6b2a" opacity="0.46"/><circle cx="1431.4" cy="255.1" r="5.2" fill="#1b6b2a" opacity="0.46"/><circle cx="1447.0" cy="328.6" r="5.2" fill="#1b6b2a" opacity="0.46"/><circle cx="1420.7" cy="327.3" r="5.2" fill="#1b6b2a" opacity="0.46"/><circle cx="1339.7" cy="308.4" r="5.2" fill="#1b6b2a" opacity="0.46"/><circle cx="1407.6" cy="283.8" r="5.2" fill="#1b6b2a" opacity="0.46"/><circle cx="1461.0" cy="285.7" r="5.2" fill="#1b6b2a" opacity="0.46"/><circle cx="1452.7" cy="286.1" r="5.2" fill="#1b6b2a" opacity="0.46"/><circle cx="1537.5" cy="298.3" r="5.2" fill="#1b6b2a" opacity="0.46"/><circle cx="1501.1" cy="273.3" r="5.2" fill="#1b6b2a" opacity="0.46"/><circle cx="1554.8" cy="261.0" r="5.2" fill="#1b6b2a" opacity="0.46"/><circle cx="1544.3" cy="286.8" r="5.2" fill="#1b6b2a" opacity="0.46"/><circle cx="1500.4" cy="288.5" r="5.2" fill="#1b6b2a" opacity="0.46"/><circle cx="1484.6" cy="276.2" r="5.2" fill="#1b6b2a" opacity="0.46"/><circle cx="1562.4" cy="314.2" r="5.2" fill="#1b6b2a" opacity="0.46"/><circle cx="1362.2" cy="303.7" r="5.2" fill="#1b6b2a" opacity="0.46"/><circle cx="1429.3" cy="267.6" r="5.2" fill="#1b6b2a" opacity="0.46"/><circle cx="1396.6" cy="302.0" r="5.2" fill="#1b6b2a" opacity="0.46"/><circle cx="1436.7" cy="295.6" r="5.2" fill="#1b6b2a" opacity="0.46"/><circle cx="1489.5" cy="251.7" r="5.2" fill="#1b6b2a" opacity="0.46"/><circle cx="1446.8" cy="274.2" r="5.2" fill="#1b6b2a" opacity="0.46"/><circle cx="1502.8" cy="262.6" r="5.2" fill="#1b6b2a" opacity="0.46"/><circle cx="1574.5" cy="302.3" r="5.2" fill="#1b6b2a" opacity="0.46"/><circle cx="1444.0" cy="327.8" r="5.2" fill="#1b6b2a" opacity="0.46"/><circle cx="1548.0" cy="273.0" r="5.2" fill="#1b6b2a" opacity="0.46"/><circle cx="1410.6" cy="312.8" r="5.2" fill="#1b6b2a" opacity="0.46"/><circle cx="1559.1" cy="305.2" r="5.2" fill="#1b6b2a" opacity="0.46"/><circle cx="1506.5" cy="283.5" r="5.2" fill="#1b6b2a" opacity="0.46"/><circle cx="1408.0" cy="325.3" r="5.2" fill="#1b6b2a" opacity="0.46"/><circle cx="1521.1" cy="302.9" r="5.2" fill="#1b6b2a" opacity="0.46"/><circle cx="1471.2" cy="267.8" r="5.2" fill="#1b6b2a" opacity="0.46"/><circle cx="1583.7" cy="302.9" r="5.2" fill="#1b6b2a" opacity="0.46"/><circle cx="1544.1" cy="318.8" r="5.2" fill="#1b6b2a" opacity="0.46"/><circle cx="1437.6" cy="293.9" r="5.2" fill="#1b6b2a" opacity="0.46"/><circle cx="1554.2" cy="267.4" r="5.2" fill="#1b6b2a" opacity="0.46"/><circle cx="1574.1" cy="297.4" r="5.2" fill="#1b6b2a" opacity="0.46"/><circle cx="1530.0" cy="296.0" r="5.2" fill="#1b6b2a" opacity="0.46"/><circle cx="1497.2" cy="308.2" r="5.2" fill="#1b6b2a" opacity="0.46"/><circle cx="1376.0" cy="274.4" r="5.2" fill="#1b6b2a" opacity="0.46"/><circle cx="1379.5" cy="281.0" r="5.2" fill="#1b6b2a" opacity="0.46"/><circle cx="1586.7" cy="275.7" r="5.2" fill="#1b6b2a" opacity="0.46"/><circle cx="1369.1" cy="281.4" r="5.2" fill="#1b6b2a" opacity="0.46"/><circle cx="1397.2" cy="310.1" r="5.2" fill="#1b6b2a" opacity="0.46"/><circle cx="1592.6" cy="282.2" r="5.2" fill="#1b6b2a" opacity="0.46"/><circle cx="1552.1" cy="269.7" r="5.2" fill="#1b6b2a" opacity="0.46"/><circle cx="1458.5" cy="331.2" r="5.2" fill="#1b6b2a" opacity="0.46"/><circle cx="1363.0" cy="286.7" r="5.2" fill="#1b6b2a" opacity="0.46"/><circle cx="1491.6" cy="309.0" r="5.2" fill="#1b6b2a" opacity="0.46"/><circle cx="1377.6" cy="312.0" r="5.2" fill="#1b6b2a" opacity="0.46"/><circle cx="1485.8" cy="294.6" r="5.2" fill="#1b6b2a" opacity="0.46"/><circle cx="1496.5" cy="262.6" r="5.2" fill="#1b6b2a" opacity="0.46"/><circle cx="1384.5" cy="283.7" r="5.2" fill="#1b6b2a" opacity="0.46"/><circle cx="1519.2" cy="295.8" r="5.2" fill="#1b6b2a" opacity="0.46"/><circle cx="1471.5" cy="301.7" r="5.2" fill="#1b6b2a" opacity="0.46"/><circle cx="1412.5" cy="308.9" r="5.2" fill="#1b6b2a" opacity="0.46"/><circle cx="1398.4" cy="268.0" r="5.2" fill="#1b6b2a" opacity="0.46"/><circle cx="1365.7" cy="322.5" r="5.2" fill="#1b6b2a" opacity="0.46"/><circle cx="1583.2" cy="275.8" r="5.2" fill="#1b6b2a" opacity="0.46"/><circle cx="1427.7" cy="319.7" r="5.2" fill="#1b6b2a" opacity="0.46"/><circle cx="1397.2" cy="297.7" r="5.2" fill="#1b6b2a" opacity="0.46"/><circle cx="1527.0" cy="316.2" r="5.2" fill="#1b6b2a" opacity="0.46"/><circle cx="1456.7" cy="299.8" r="5.2" fill="#1b6b2a" opacity="0.46"/><circle cx="1544.5" cy="298.3" r="5.2" fill="#1b6b2a" opacity="0.46"/><circle cx="1511.1" cy="288.6" r="5.2" fill="#1b6b2a" opacity="0.46"/><circle cx="1491.1" cy="280.8" r="5.2" fill="#1b6b2a" opacity="0.46"/><circle cx="1380.0" cy="304.9" r="5.2" fill="#1b6b2a" opacity="0.46"/><circle cx="1400.0" cy="299.1" r="5.2" fill="#1b6b2a" opacity="0.46"/><circle cx="1513.2" cy="290.9" r="5.2" fill="#1b6b2a" opacity="0.46"/><circle cx="1398.9" cy="281.3" r="5.2" fill="#1b6b2a" opacity="0.46"/><circle cx="1566.2" cy="282.4" r="5.2" fill="#1b6b2a" opacity="0.46"/><circle cx="1558.5" cy="290.8" r="5.2" fill="#1b6b2a" opacity="0.46"/><circle cx="1466.9" cy="326.1" r="5.2" fill="#1b6b2a" opacity="0.46"/><circle cx="1479.7" cy="331.0" r="5.2" fill="#1b6b2a" opacity="0.46"/><circle cx="1512.8" cy="284.0" r="5.2" fill="#1b6b2a" opacity="0.46"/><circle cx="1386.7" cy="309.6" r="5.2" fill="#1b6b2a" opacity="0.46"/><circle cx="1514.0" cy="282.0" r="5.2" fill="#1b6b2a" opacity="0.46"/><circle cx="1497.3" cy="280.6" r="5.2" fill="#1b6b2a" opacity="0.46"/><circle cx="1454.6" cy="268.3" r="5.2" fill="#1b6b2a" opacity="0.46"/><circle cx="1357.2" cy="304.6" r="5.2" fill="#1b6b2a" opacity="0.46"/><circle cx="1417.4" cy="315.3" r="5.2" fill="#1b6b2a" opacity="0.46"/><circle cx="1401.6" cy="264.0" r="5.2" fill="#1b6b2a" opacity="0.46"/><circle cx="1461.8" cy="253.4" r="5.2" fill="#1b6b2a" opacity="0.46"/><circle cx="1458.4" cy="322.9" r="5.2" fill="#1b6b2a" opacity="0.46"/><circle cx="1475.4" cy="317.5" r="5.2" fill="#1b6b2a" opacity="0.46"/><circle cx="1525.8" cy="270.4" r="5.2" fill="#1b6b2a" opacity="0.46"/><circle cx="1530.6" cy="274.9" r="5.2" fill="#1b6b2a" opacity="0.46"/><circle cx="1435.5" cy="255.1" r="5.2" fill="#1b6b2a" opacity="0.46"/><circle cx="1505.4" cy="274.9" r="5.2" fill="#1b6b2a" opacity="0.46"/><circle cx="1393.9" cy="327.6" r="5.2" fill="#1b6b2a" opacity="0.46"/><circle cx="1485.2" cy="288.0" r="5.2" fill="#1b6b2a" opacity="0.46"/><circle cx="1389.8" cy="323.8" r="5.2" fill="#1b6b2a" opacity="0.46"/><circle cx="1546.7" cy="292.7" r="5.2" fill="#1b6b2a" opacity="0.46"/><circle cx="1500.8" cy="316.5" r="5.2" fill="#1b6b2a" opacity="0.46"/><circle cx="1360.3" cy="300.5" r="5.2" fill="#1b6b2a" opacity="0.46"/><circle cx="1429.3" cy="294.1" r="5.2" fill="#1b6b2a" opacity="0.46"/><circle cx="1482.2" cy="283.4" r="5.2" fill="#1b6b2a" opacity="0.46"/><circle cx="1535.2" cy="256.9" r="5.2" fill="#1b6b2a" opacity="0.46"/><circle cx="1534.4" cy="304.1" r="5.2" fill="#1b6b2a" opacity="0.46"/><circle cx="1415.0" cy="278.0" r="5.2" fill="#1b6b2a" opacity="0.46"/><circle cx="1436.2" cy="324.0" r="5.2" fill="#1b6b2a" opacity="0.46"/><circle cx="1401.0" cy="304.3" r="5.2" fill="#1b6b2a" opacity="0.46"/><circle cx="1566.3" cy="270.9" r="5.2" fill="#1b6b2a" opacity="0.46"/><circle cx="1464.2" cy="326.3" r="5.2" fill="#1b6b2a" opacity="0.46"/><circle cx="1457.2" cy="288.8" r="5.2" fill="#1b6b2a" opacity="0.46"/><circle cx="1379.9" cy="314.2" r="5.2" fill="#1b6b2a" opacity="0.46"/><circle cx="1460.5" cy="318.6" r="5.2" fill="#1b6b2a" opacity="0.46"/><circle cx="1492.0" cy="283.1" r="5.2" fill="#1b6b2a" opacity="0.46"/><circle cx="1447.7" cy="271.7" r="5.2" fill="#1b6b2a" opacity="0.46"/><circle cx="1366.9" cy="288.1" r="5.2" fill="#1b6b2a" opacity="0.46"/><circle cx="1548.5" cy="280.9" r="5.2" fill="#1b6b2a" opacity="0.46"/><circle cx="1363.6" cy="302.1" r="5.2" fill="#1b6b2a" opacity="0.46"/><circle cx="1468.1" cy="276.4" r="5.2" fill="#1b6b2a" opacity="0.46"/><circle cx="1465.9" cy="313.9" r="5.2" fill="#1b6b2a" opacity="0.46"/><polygon points="1467,264 1473.4656377752171,280.10081306187556 1490.776412907379,281.2745751406263 1477.4616216792467,292.39918693812444 1481.6946313073117,309.2254248593737 1467,300 1452.3053686926883,309.2254248593737 1456.5383783207533,292.39918693812444 1443.223587092621,281.2745751406263 1460.5343622247829,280.10081306187556" fill="#111" stroke="#111" stroke-width="1.2"/><text x="1430" y="423" class="stage" text-anchor="middle" fill="#1b6b2a"><tspan>posterior</tspan><tspan dx="0.32em">p(x|c)</tspan></text><text x="1430" y="452" class="small" text-anchor="middle" fill="#1b6b2a"><tspan>samples</tspan><tspan dx="0.32em">+</tspan><tspan dx="0.32em">credible</tspan><tspan dx="0.32em">regions</tspan></text><text x="1670" y="178" class="small" text-anchor="start" fill="#1b6b2a"><tspan x="1670" dy="0">50</tspan><tspan dx="0.32em">/</tspan><tspan dx="0.32em">90</tspan><tspan dx="0.32em">/</tspan><tspan dx="0.32em">95%</tspan><tspan x="1670" dy="30">credible</tspan><tspan dx="0.32em">regions</tspan></text><text x="1670" y="286" class="small" text-anchor="start" fill="#1f2528"><tspan x="1670" dy="0">mean</tspan><tspan x="1670" dy="30">point</tspan><tspan dx="0.32em">estimate</tspan></text><line x1="1626" y1="281" x2="1493" y2="290" stroke="#1f2528" stroke-width="2" opacity="0.65"/></g><g id="time"><line x1="610" y1="500" x2="1430" y2="500" stroke="#737a7d" stroke-width="2.1"/><line x1="610" y1="488" x2="610" y2="512" stroke="#737a7d" stroke-width="2.1"/><line x1="1430" y1="488" x2="1430" y2="512" stroke="#737a7d" stroke-width="2.1"/><text x="610" y="535" class="tiny" text-anchor="middle"><tspan>t</tspan><tspan dx="0.32em">=</tspan><tspan dx="0.32em">0</tspan></text><text x="1015" y="535" class="tiny" text-anchor="middle"><tspan>Euler</tspan><tspan dx="0.32em">ODE</tspan><tspan dx="0.32em">sampling</tspan></text><text x="1430" y="535" class="tiny" text-anchor="middle"><tspan>t</tspan><tspan dx="0.32em">=</tspan><tspan dx="0.32em">1</tspan></text></g></g>
</svg>
